<svg width="550" height="550" viewBox="0 0 550 550" fill="none" xmlns="http://www.w3.org/2000/svg">
<rect width="550" height="550" rx="55" fill="#FCBF79"/>
<path d="M162.995 498.4C156.195 498.4 149.715 496.28 143.555 492.04C137.475 487.72 132.595 481.96 128.915 474.76C125.235 467.56 123.395 459.84 123.395 451.6C123.395 442.64 125.155 434.6 128.675 427.48C132.195 420.36 136.995 414.8 143.075 410.8C149.155 406.8 155.915 404.8 163.355 404.8C167.515 404.8 172.275 405.92 177.635 408.16C183.075 410.4 186.875 412.96 189.035 415.84L190.835 406.84H192.875V433.6H190.355C190.355 429.44 189.075 425.32 186.515 421.24C184.035 417.16 180.595 413.8 176.195 411.16C171.795 408.52 166.955 407.2 161.675 407.2C156.235 407.2 151.395 409.12 147.155 412.96C142.915 416.8 139.595 422.08 137.195 428.8C134.795 435.44 133.595 442.88 133.595 451.12C133.595 459.04 134.755 466.44 137.075 473.32C139.475 480.12 143.075 485.6 147.875 489.76C152.755 493.92 158.675 496 165.635 496C170.755 496 175.435 494.52 179.675 491.56C183.915 488.6 187.075 484.76 189.155 480.04C189.395 479.48 189.875 477.84 190.595 475.12C191.155 472.72 191.715 470.72 192.275 469.12C192.915 467.44 193.755 465.96 194.795 464.68H196.475C195.195 465.8 194.275 467.88 193.715 470.92C193.235 473.96 192.995 478.16 192.995 483.52C192.995 485.44 191.435 487.6 188.315 490C185.275 492.32 181.395 494.32 176.675 496C172.035 497.6 167.475 498.4 162.995 498.4ZM227.52 497.2C219.04 497.2 212.92 494.52 209.16 489.16C205.48 483.72 203.64 476.44 203.64 467.32C203.64 458.92 205.52 451.88 209.28 446.2C213.04 440.44 219.12 437.56 227.52 437.56C235.92 437.56 242 440.44 245.76 446.2C249.6 451.88 251.52 458.92 251.52 467.32C251.52 476.44 249.64 483.72 245.88 489.16C242.12 494.52 236 497.2 227.52 497.2ZM227.52 495.76C232.96 495.76 236.92 493.16 239.4 487.96C241.88 482.68 243.12 475.8 243.12 467.32C243.12 459.4 241.84 452.72 239.28 447.28C236.72 441.76 232.8 439 227.52 439C222.24 439 218.32 441.76 215.76 447.28C213.28 452.72 212.04 459.4 212.04 467.32C212.04 475.8 213.28 482.68 215.76 487.96C218.24 493.16 222.16 495.76 227.52 495.76ZM287.674 497.2C281.754 497.2 276.874 495.8 273.034 493C269.274 490.2 266.514 486.56 264.754 482.08C263.074 477.52 262.234 472.6 262.234 467.32C262.234 462.2 263.114 457.4 264.874 452.92C266.634 448.36 269.274 444.68 272.794 441.88C276.394 439 280.674 437.56 285.634 437.56C290.194 437.56 294.434 438.6 298.354 440.68C302.354 442.76 304.634 445.4 305.194 448.6C305.354 449.72 305.434 450.48 305.434 450.88C305.434 452.64 304.994 454.08 304.114 455.2C303.234 456.24 301.994 456.76 300.394 456.76C297.594 456.76 296.194 455.88 296.194 454.12C296.194 453.4 296.394 452.36 296.794 451C297.274 449.4 297.514 448.08 297.514 447.04C297.514 445.44 296.914 444.04 295.714 442.84C294.514 441.56 293.074 440.6 291.394 439.96C289.714 439.32 288.194 439 286.834 439C281.794 439 277.834 441.52 274.954 446.56C272.074 451.52 270.634 458.8 270.634 468.4C270.634 476.16 272.034 482.52 274.834 487.48C277.714 492.44 282.114 494.92 288.034 494.92C292.114 494.92 295.474 493.68 298.114 491.2C300.754 488.72 302.514 485.68 303.394 482.08H306.034C304.914 486.24 302.674 489.8 299.314 492.76C295.954 495.72 292.074 497.2 287.674 497.2ZM338.262 497.2C329.782 497.2 323.662 494.52 319.902 489.16C316.222 483.72 314.382 476.44 314.382 467.32C314.382 458.92 316.262 451.88 320.022 446.2C323.782 440.44 329.862 437.56 338.262 437.56C346.662 437.56 352.742 440.44 356.502 446.2C360.342 451.88 362.262 458.92 362.262 467.32C362.262 476.44 360.382 483.72 356.622 489.16C352.862 494.52 346.742 497.2 338.262 497.2ZM338.262 495.76C343.702 495.76 347.662 493.16 350.142 487.96C352.622 482.68 353.862 475.8 353.862 467.32C353.862 459.4 352.582 452.72 350.022 447.28C347.462 441.76 343.542 439 338.262 439C332.982 439 329.062 441.76 326.502 447.28C324.022 452.72 322.782 459.4 322.782 467.32C322.782 475.8 324.022 482.68 326.502 487.96C328.982 493.16 332.902 495.76 338.262 495.76ZM387.644 497.2C383.164 497.2 379.404 495.84 376.364 493.12C373.324 490.32 371.804 486.36 371.804 481.24C371.804 477.56 373.044 474.44 375.524 471.88C378.004 469.24 380.724 467.44 383.684 466.48C385.204 466 386.964 465.56 388.964 465.16C391.044 464.68 392.444 464.36 393.164 464.2C397.164 463.4 400.164 462.68 402.164 462.04C404.164 461.32 405.364 460.36 405.764 459.16C405.764 453.4 404.644 448.6 402.404 444.76C400.244 440.92 396.604 439 391.484 439C388.284 439 385.884 440.16 384.284 442.48C382.764 444.72 382.004 447.76 382.004 451.6C382.004 452.64 382.204 453.4 382.604 453.88C383.004 454.28 383.924 454.48 385.364 454.48C386.244 454.48 387.004 454.28 387.644 453.88C388.284 453.48 388.604 453 388.604 452.44H389.684V455.68H373.964C373.964 452.8 374.804 449.96 376.484 447.16C378.164 444.28 380.484 441.96 383.444 440.2C386.404 438.36 389.684 437.44 393.284 437.44C398.084 437.44 401.924 438.56 404.804 440.8C407.764 442.96 409.844 445.6 411.044 448.72C412.324 451.76 412.964 454.8 412.964 457.84V483.88C412.964 489.88 414.244 492.88 416.804 492.88C417.604 492.88 418.324 492.36 418.964 491.32C419.684 490.2 420.044 489.08 420.044 487.96H421.244C421.244 490.92 420.324 493.2 418.484 494.8C416.724 496.4 414.684 497.2 412.364 497.2C409.644 497.2 407.844 496 406.964 493.6C406.164 491.2 405.764 487.84 405.764 483.52V478C405.764 479.12 405.204 481.24 404.084 484.36C403.044 487.48 401.164 490.4 398.444 493.12C395.724 495.84 392.124 497.2 387.644 497.2ZM390.404 493.84C393.124 493.84 395.644 492.76 397.964 490.6C400.284 488.44 402.124 485.88 403.484 482.92C404.844 479.96 405.524 477.48 405.524 475.48V461.8C405.524 462.04 405.124 462.28 404.324 462.52C403.524 462.76 402.524 463 401.324 463.24C396.124 464.6 392.324 465.72 389.924 466.6C386.164 467.96 383.404 469.88 381.644 472.36C379.884 474.76 379.004 477.48 379.004 480.52C379.004 484.04 379.964 487.16 381.884 489.88C383.884 492.52 386.724 493.84 390.404 493.84Z" fill="white"/>
<path d="M143.555 492.04L142.975 492.855L142.981 492.859L142.988 492.864L143.555 492.04ZM128.915 474.76L128.024 475.215L128.915 474.76ZM128.675 427.48L127.778 427.037L128.675 427.48ZM177.635 408.16L177.249 409.083L177.254 409.085L177.635 408.16ZM189.035 415.84L188.235 416.44L189.576 418.229L190.015 416.036L189.035 415.84ZM190.835 406.84V405.84H190.015L189.854 406.644L190.835 406.84ZM192.875 406.84H193.875V405.84H192.875V406.84ZM192.875 433.6V434.6H193.875V433.6H192.875ZM190.355 433.6H189.355V434.6H190.355V433.6ZM186.515 421.24L185.66 421.759L185.664 421.765L185.667 421.771L186.515 421.24ZM176.195 411.16L175.68 412.017L176.195 411.16ZM147.155 412.96L146.483 412.219L147.155 412.96ZM137.195 428.8L138.135 429.14L138.136 429.136L137.195 428.8ZM137.075 473.32L136.127 473.64L136.132 473.653L137.075 473.32ZM147.875 489.76L147.22 490.516L147.226 490.521L147.875 489.76ZM179.675 491.56L180.247 492.38L179.675 491.56ZM189.155 480.04L190.07 480.443L190.074 480.434L189.155 480.04ZM190.595 475.12L191.561 475.376L191.565 475.362L191.568 475.347L190.595 475.12ZM192.275 469.12L191.34 468.764L191.335 468.777L191.331 468.79L192.275 469.12ZM194.795 464.68V463.68H194.319L194.018 464.049L194.795 464.68ZM196.475 464.68L197.133 465.433L199.136 463.68H196.475V464.68ZM193.715 470.92L192.731 470.739L192.729 470.751L192.727 470.764L193.715 470.92ZM188.315 490L188.921 490.795L188.924 490.793L188.315 490ZM176.675 496L177.001 496.945L177.01 496.942L176.675 496ZM162.995 497.4C156.417 497.4 150.132 495.353 144.122 491.216L142.988 492.864C149.297 497.207 155.972 499.4 162.995 499.4V497.4ZM144.134 491.225C138.196 487.006 133.418 481.374 129.805 474.305L128.024 475.215C131.771 482.546 136.753 488.434 142.975 492.855L144.134 491.225ZM129.805 474.305C126.198 467.249 124.395 459.685 124.395 451.6H122.395C122.395 459.995 124.271 467.871 128.024 475.215L129.805 474.305ZM124.395 451.6C124.395 442.774 126.127 434.889 129.571 427.923L127.778 427.037C124.182 434.311 122.395 442.506 122.395 451.6H124.395ZM129.571 427.923C133.02 420.947 137.706 415.529 143.624 411.635L142.525 409.965C136.283 414.071 131.369 419.773 127.778 427.037L129.571 427.923ZM143.624 411.635C149.537 407.745 156.105 405.8 163.355 405.8V403.8C155.724 403.8 148.772 405.855 142.525 409.965L143.624 411.635ZM163.355 405.8C167.341 405.8 171.966 406.875 177.249 409.083L178.02 407.237C172.583 404.965 167.688 403.8 163.355 403.8V405.8ZM177.254 409.085C182.622 411.295 186.231 413.768 188.235 416.44L189.835 415.24C187.518 412.152 183.527 409.505 178.015 407.235L177.254 409.085ZM190.015 416.036L191.815 407.036L189.854 406.644L188.054 415.644L190.015 416.036ZM190.835 407.84H192.875V405.84H190.835V407.84ZM191.875 406.84V433.6H193.875V406.84H191.875ZM192.875 432.6H190.355V434.6H192.875V432.6ZM191.355 433.6C191.355 429.224 190.005 424.922 187.362 420.709L185.667 421.771C188.144 425.718 189.355 429.656 189.355 433.6H191.355ZM187.369 420.721C184.799 416.492 181.237 413.02 176.709 410.303L175.68 412.017C179.952 414.58 183.27 417.828 185.66 421.759L187.369 420.721ZM176.709 410.303C172.149 407.566 167.13 406.2 161.675 406.2V408.2C166.779 408.2 171.44 409.474 175.68 412.017L176.709 410.303ZM161.675 406.2C155.973 406.2 150.897 408.222 146.483 412.219L147.826 413.701C151.892 410.018 156.496 408.2 161.675 408.2V406.2ZM146.483 412.219C142.095 416.193 138.695 421.626 136.253 428.464L138.136 429.136C140.494 422.534 143.735 417.407 147.826 413.701L146.483 412.219ZM136.254 428.46C133.809 435.226 132.595 442.783 132.595 451.12H134.595C134.595 442.977 135.78 435.654 138.135 429.14L136.254 428.46ZM132.595 451.12C132.595 459.139 133.769 466.648 136.127 473.64L138.022 473C135.74 466.232 134.595 458.941 134.595 451.12H132.595ZM136.132 473.653C138.581 480.594 142.272 486.227 147.22 490.516L148.529 489.004C143.877 484.973 140.368 479.646 138.018 472.987L136.132 473.653ZM147.226 490.521C152.303 494.849 158.459 497 165.635 497V495C158.89 495 153.206 492.991 148.523 488.999L147.226 490.521ZM165.635 497C170.961 497 175.841 495.456 180.247 492.38L179.102 490.74C175.028 493.584 170.548 495 165.635 495V497ZM180.247 492.38C184.637 489.315 187.916 485.331 190.07 480.443L188.239 479.637C186.234 484.189 183.192 487.885 179.102 490.74L180.247 492.38ZM190.074 480.434C190.35 479.79 190.85 478.063 191.561 475.376L189.628 474.864C188.899 477.617 188.439 479.17 188.235 479.646L190.074 480.434ZM191.568 475.347C192.124 472.968 192.674 471.005 193.218 469.45L191.331 468.79C190.755 470.435 190.186 472.472 189.621 474.893L191.568 475.347ZM193.209 469.476C193.815 467.886 194.603 466.501 195.571 465.311L194.018 464.049C192.906 465.419 192.015 466.994 191.34 468.764L193.209 469.476ZM194.795 465.68H196.475V463.68H194.795V465.68ZM195.816 463.927C194.275 465.276 193.302 467.637 192.731 470.739L194.698 471.101C195.247 468.123 196.114 466.324 197.133 465.433L195.816 463.927ZM192.727 470.764C192.235 473.88 191.995 478.14 191.995 483.52H193.995C193.995 478.18 194.234 474.04 194.702 471.076L192.727 470.764ZM191.995 483.52C191.995 484.202 191.717 485.021 191.014 485.995C190.311 486.968 189.221 488.041 187.705 489.207L188.924 490.793C190.528 489.559 191.779 488.352 192.635 487.165C193.492 485.979 193.995 484.758 193.995 483.52H191.995ZM187.708 489.205C184.771 491.446 180.99 493.402 176.339 495.058L177.01 496.942C181.799 495.238 185.778 493.194 188.921 490.795L187.708 489.205ZM176.349 495.055C171.803 496.622 167.354 497.4 162.995 497.4V499.4C167.596 499.4 172.266 498.578 177.001 496.945L176.349 495.055ZM209.16 489.16L208.332 489.72L208.336 489.727L208.341 489.734L209.16 489.16ZM209.28 446.2L210.114 446.752L210.117 446.747L209.28 446.2ZM245.76 446.2L244.922 446.747L244.927 446.753L244.931 446.76L245.76 446.2ZM245.88 489.16L246.699 489.734L246.702 489.729L245.88 489.16ZM239.4 487.96L240.302 488.39L240.305 488.385L239.4 487.96ZM239.28 447.28L238.373 447.701L238.375 447.706L239.28 447.28ZM215.76 447.28L214.853 446.859L214.85 446.865L215.76 447.28ZM215.76 487.96L214.855 488.385L214.857 488.39L215.76 487.96ZM227.52 496.2C219.259 496.2 213.497 493.602 209.979 488.586L208.341 489.734C212.342 495.438 218.821 498.2 227.52 498.2V496.2ZM209.988 488.6C206.456 483.378 204.64 476.315 204.64 467.32H202.64C202.64 476.565 204.504 484.062 208.332 489.72L209.988 488.6ZM204.64 467.32C204.64 459.07 206.485 452.234 210.114 446.752L208.446 445.648C204.555 451.526 202.64 458.77 202.64 467.32H204.64ZM210.117 446.747C213.65 441.334 219.372 438.56 227.52 438.56V436.56C218.868 436.56 212.43 439.546 208.442 445.653L210.117 446.747ZM227.52 438.56C235.668 438.56 241.39 441.334 244.922 446.747L246.597 445.653C242.61 439.546 236.172 436.56 227.52 436.56V438.56ZM244.931 446.76C248.637 452.241 250.52 459.074 250.52 467.32H252.52C252.52 458.766 250.563 451.519 246.588 445.64L244.931 446.76ZM250.52 467.32C250.52 476.312 248.665 483.371 245.057 488.591L246.702 489.729C250.614 484.069 252.52 476.568 252.52 467.32H250.52ZM245.061 488.586C241.542 493.602 235.781 496.2 227.52 496.2V498.2C236.219 498.2 242.697 495.438 246.699 489.734L245.061 488.586ZM227.52 496.76C230.405 496.76 232.952 496.068 235.119 494.646C237.281 493.226 239.001 491.12 240.302 488.39L238.497 487.53C237.319 490 235.818 491.794 234.021 492.974C232.227 494.152 230.075 494.76 227.52 494.76V496.76ZM240.305 488.385C242.869 482.926 244.12 475.885 244.12 467.32H242.12C242.12 475.715 240.891 482.434 238.495 487.535L240.305 488.385ZM244.12 467.32C244.12 459.297 242.824 452.463 240.185 446.854L238.375 447.706C240.856 452.977 242.12 459.503 242.12 467.32H244.12ZM240.187 446.859C238.853 443.982 237.133 441.757 234.996 440.252C232.85 438.742 230.344 438 227.52 438V440C229.976 440 232.07 440.638 233.844 441.888C235.627 443.143 237.147 445.058 238.373 447.701L240.187 446.859ZM227.52 438C224.696 438 222.19 438.742 220.044 440.252C217.907 441.757 216.187 443.982 214.853 446.859L216.667 447.701C217.893 445.058 219.413 443.143 221.196 441.888C222.97 440.638 225.064 440 227.52 440V438ZM214.85 446.865C212.295 452.47 211.04 459.301 211.04 467.32H213.04C213.04 459.499 214.265 452.97 216.67 447.695L214.85 446.865ZM211.04 467.32C211.04 475.885 212.291 482.926 214.855 488.385L216.665 487.535C214.269 482.434 213.04 475.715 213.04 467.32H211.04ZM214.857 488.39C216.158 491.117 217.866 493.223 220.007 494.643C222.153 496.067 224.671 496.76 227.52 496.76V494.76C225.008 494.76 222.887 494.153 221.113 492.977C219.334 491.797 217.842 490.003 216.662 487.53L214.857 488.39ZM273.034 493L272.436 493.802L272.444 493.808L273.034 493ZM264.754 482.08L263.815 482.426L263.819 482.436L263.823 482.446L264.754 482.08ZM264.874 452.92L265.804 453.286L265.807 453.28L264.874 452.92ZM272.794 441.88L273.416 442.663L273.418 442.661L272.794 441.88ZM298.354 440.68L297.885 441.563L297.892 441.567L298.354 440.68ZM305.194 448.6L306.184 448.459L306.181 448.443L306.179 448.428L305.194 448.6ZM304.114 455.2L304.877 455.846L304.889 455.832L304.9 455.818L304.114 455.2ZM296.794 451L295.836 450.713L295.834 450.718L296.794 451ZM295.714 442.84L294.984 443.524L294.995 443.536L295.006 443.547L295.714 442.84ZM291.394 439.96L291.038 440.894L291.394 439.96ZM274.954 446.56L275.818 447.062L275.822 447.056L274.954 446.56ZM274.834 487.48L273.963 487.972L273.969 487.982L274.834 487.48ZM298.114 491.2L297.429 490.471L298.114 491.2ZM303.394 482.08V481.08H302.609L302.422 481.843L303.394 482.08ZM306.034 482.08L306.999 482.34L307.338 481.08H306.034V482.08ZM299.314 492.76L298.653 492.01L299.314 492.76ZM287.674 496.2C281.913 496.2 277.253 494.839 273.623 492.192L272.444 493.808C276.494 496.761 281.595 498.2 287.674 498.2V496.2ZM273.631 492.198C270.025 489.513 267.378 486.026 265.684 481.714L263.823 482.446C265.649 487.094 268.522 490.887 272.436 493.802L273.631 492.198ZM265.692 481.734C264.056 477.294 263.234 472.492 263.234 467.32H261.234C261.234 472.708 262.091 477.746 263.815 482.426L265.692 481.734ZM263.234 467.32C263.234 462.317 264.093 457.642 265.804 453.286L263.943 452.554C262.134 457.158 261.234 462.083 261.234 467.32H263.234ZM265.807 453.28C267.508 448.871 270.047 445.342 273.416 442.663L272.171 441.097C268.5 444.018 265.759 447.849 263.941 452.56L265.807 453.28ZM273.418 442.661C276.827 439.934 280.882 438.56 285.634 438.56V436.56C280.465 436.56 275.96 438.066 272.169 441.099L273.418 442.661ZM285.634 438.56C290.035 438.56 294.113 439.562 297.885 441.563L298.822 439.797C294.754 437.638 290.352 436.56 285.634 436.56V438.56ZM297.892 441.567C301.73 443.563 303.721 445.987 304.209 448.772L306.179 448.428C305.546 444.813 302.977 441.957 298.815 439.793L297.892 441.567ZM304.204 448.741C304.365 449.87 304.434 450.562 304.434 450.88H306.434C306.434 450.398 306.342 449.57 306.184 448.459L304.204 448.741ZM304.434 450.88C304.434 452.47 304.039 453.677 303.327 454.582L304.9 455.818C305.948 454.483 306.434 452.81 306.434 450.88H304.434ZM303.35 454.554C302.694 455.329 301.756 455.76 300.394 455.76V457.76C302.231 457.76 303.773 457.151 304.877 455.846L303.35 454.554ZM300.394 455.76C299.066 455.76 298.241 455.546 297.776 455.253C297.389 455.01 297.194 454.683 297.194 454.12H295.194C295.194 455.317 295.698 456.31 296.711 456.947C297.647 457.534 298.921 457.76 300.394 457.76V455.76ZM297.194 454.12C297.194 453.548 297.359 452.621 297.753 451.282L295.834 450.718C295.428 452.099 295.194 453.252 295.194 454.12H297.194ZM297.751 451.287C298.245 449.643 298.514 448.218 298.514 447.04H296.514C296.514 447.942 296.303 449.157 295.836 450.713L297.751 451.287ZM298.514 447.04C298.514 445.157 297.796 443.508 296.421 442.133L295.006 443.547C296.032 444.572 296.514 445.723 296.514 447.04H298.514ZM296.443 442.156C295.137 440.762 293.568 439.718 291.75 439.026L291.038 440.894C292.579 441.482 293.891 442.358 294.984 443.524L296.443 442.156ZM291.75 439.026C289.99 438.355 288.347 438 286.834 438V440C288.04 440 289.437 440.285 291.038 440.894L291.75 439.026ZM286.834 438C281.374 438 277.111 440.769 274.085 446.064L275.822 447.056C278.556 442.271 282.213 440 286.834 440V438ZM274.089 446.058C271.079 451.241 269.634 458.729 269.634 468.4H271.634C271.634 458.871 273.068 451.799 275.818 447.062L274.089 446.058ZM269.634 468.4C269.634 476.272 271.053 482.817 273.963 487.972L275.704 486.988C273.014 482.223 271.634 476.048 271.634 468.4H269.634ZM273.969 487.982C277.035 493.262 281.771 495.92 288.034 495.92V493.92C282.456 493.92 278.392 491.618 275.698 486.978L273.969 487.982ZM288.034 495.92C292.333 495.92 295.949 494.605 298.798 491.929L297.429 490.471C294.998 492.755 291.894 493.92 288.034 493.92V495.92ZM298.798 491.929C301.583 489.313 303.44 486.101 304.365 482.317L302.422 481.843C301.587 485.259 299.924 488.127 297.429 490.471L298.798 491.929ZM303.394 483.08H306.034V481.08H303.394V483.08ZM305.068 481.82C304.001 485.782 301.871 489.174 298.653 492.01L299.975 493.51C303.476 490.426 305.826 486.698 306.999 482.34L305.068 481.82ZM298.653 492.01C295.472 494.812 291.826 496.2 287.674 496.2V498.2C292.322 498.2 296.436 496.628 299.975 493.51L298.653 492.01ZM319.902 489.16L319.074 489.72L319.079 489.727L319.083 489.734L319.902 489.16ZM320.022 446.2L320.856 446.752L320.859 446.747L320.022 446.2ZM356.502 446.2L355.665 446.747L355.669 446.753L355.674 446.76L356.502 446.2ZM356.622 489.16L357.441 489.734L357.445 489.729L356.622 489.16ZM350.142 487.96L351.045 488.39L351.047 488.385L350.142 487.96ZM350.022 447.28L349.115 447.701L349.117 447.706L350.022 447.28ZM326.502 447.28L325.595 446.859L325.592 446.865L326.502 447.28ZM326.502 487.96L325.597 488.385L325.599 488.39L326.502 487.96ZM338.262 496.2C330.001 496.2 324.24 493.602 320.721 488.586L319.083 489.734C323.084 495.438 329.563 498.2 338.262 498.2V496.2ZM320.73 488.6C317.198 483.378 315.382 476.315 315.382 467.32H313.382C313.382 476.565 315.246 484.062 319.074 489.72L320.73 488.6ZM315.382 467.32C315.382 459.07 317.227 452.234 320.856 446.752L319.188 445.648C315.297 451.526 313.382 458.77 313.382 467.32H315.382ZM320.859 446.747C324.392 441.334 330.114 438.56 338.262 438.56V436.56C329.61 436.56 323.172 439.546 319.185 445.653L320.859 446.747ZM338.262 438.56C346.41 438.56 352.132 441.334 355.665 446.747L357.339 445.653C353.352 439.546 346.914 436.56 338.262 436.56V438.56ZM355.674 446.76C359.379 452.241 361.262 459.074 361.262 467.32H363.262C363.262 458.766 361.305 451.519 357.33 445.64L355.674 446.76ZM361.262 467.32C361.262 476.312 359.408 483.371 355.799 488.591L357.445 489.729C361.356 484.069 363.262 476.568 363.262 467.32H361.262ZM355.803 488.586C352.284 493.602 346.523 496.2 338.262 496.2V498.2C346.961 498.2 353.44 495.438 357.441 489.734L355.803 488.586ZM338.262 496.76C341.147 496.76 343.695 496.068 345.861 494.646C348.024 493.226 349.743 491.12 351.045 488.39L349.239 487.53C348.061 490 346.56 491.794 344.763 492.974C342.969 494.152 340.817 494.76 338.262 494.76V496.76ZM351.047 488.385C353.611 482.926 354.862 475.885 354.862 467.32H352.862C352.862 475.715 351.633 482.434 349.237 487.535L351.047 488.385ZM354.862 467.32C354.862 459.297 353.566 452.463 350.927 446.854L349.117 447.706C351.598 452.977 352.862 459.503 352.862 467.32H354.862ZM350.929 446.859C349.595 443.982 347.875 441.757 345.738 440.252C343.592 438.742 341.086 438 338.262 438V440C340.718 440 342.812 440.638 344.586 441.888C346.369 443.143 347.889 445.058 349.115 447.701L350.929 446.859ZM338.262 438C335.438 438 332.932 438.742 330.786 440.252C328.649 441.757 326.929 443.982 325.595 446.859L327.409 447.701C328.635 445.058 330.155 443.143 331.938 441.888C333.712 440.638 335.806 440 338.262 440V438ZM325.592 446.865C323.037 452.47 321.782 459.301 321.782 467.32H323.782C323.782 459.499 325.007 452.97 327.412 447.695L325.592 446.865ZM321.782 467.32C321.782 475.885 323.033 482.926 325.597 488.385L327.407 487.535C325.011 482.434 323.782 475.715 323.782 467.32H321.782ZM325.599 488.39C326.9 491.117 328.608 493.223 330.749 494.643C332.895 496.067 335.414 496.76 338.262 496.76V494.76C335.75 494.76 333.629 494.153 331.855 492.977C330.076 491.797 328.584 490.003 327.405 487.53L325.599 488.39ZM376.364 493.12L375.686 493.856L375.692 493.86L375.697 493.865L376.364 493.12ZM375.524 471.88L376.242 472.576L376.247 472.57L376.253 472.565L375.524 471.88ZM383.684 466.48L383.383 465.526L383.375 465.529L383.684 466.48ZM388.964 465.16L389.16 466.141L389.174 466.138L389.189 466.134L388.964 465.16ZM393.164 464.2L392.968 463.219L392.957 463.222L392.947 463.224L393.164 464.2ZM402.164 462.04L402.469 462.992L402.486 462.987L402.503 462.981L402.164 462.04ZM405.764 459.16L406.713 459.476L406.764 459.322V459.16H405.764ZM402.404 444.76L401.532 445.25L401.536 445.257L401.54 445.264L402.404 444.76ZM384.284 442.48L383.461 441.912L383.456 441.918L384.284 442.48ZM382.604 453.88L381.836 454.52L381.865 454.555L381.897 454.587L382.604 453.88ZM388.604 452.44V451.44H387.604V452.44H388.604ZM389.684 452.44H390.684V451.44H389.684V452.44ZM389.684 455.68V456.68H390.684V455.68H389.684ZM373.964 455.68H372.964V456.68H373.964V455.68ZM376.484 447.16L377.341 447.675L377.348 447.664L376.484 447.16ZM383.444 440.2L383.955 441.06L383.963 441.054L383.972 441.049L383.444 440.2ZM404.804 440.8L404.19 441.589L404.202 441.599L404.214 441.608L404.804 440.8ZM411.044 448.72L410.111 449.079L410.116 449.094L410.122 449.108L411.044 448.72ZM418.964 491.32L418.123 490.779L418.117 490.788L418.112 490.796L418.964 491.32ZM420.044 487.96V486.96H419.044V487.96H420.044ZM421.244 487.96H422.244V486.96H421.244V487.96ZM418.484 494.8L417.828 494.045L417.819 494.053L417.811 494.06L418.484 494.8ZM406.964 493.6L406.015 493.916L406.02 493.93L406.025 493.944L406.964 493.6ZM404.084 484.36L403.143 484.022L403.139 484.033L403.135 484.044L404.084 484.36ZM398.444 493.12L399.151 493.827L398.444 493.12ZM397.964 490.6L398.645 491.332L397.964 490.6ZM403.484 482.92L404.393 483.338L403.484 482.92ZM401.324 463.24L401.128 462.259L401.099 462.265L401.071 462.273L401.324 463.24ZM389.924 466.6L390.264 467.54L390.268 467.539L389.924 466.6ZM381.644 472.36L382.45 472.951L382.455 472.945L382.459 472.939L381.644 472.36ZM381.884 489.88L381.067 490.457L381.077 490.47L381.087 490.484L381.884 489.88ZM387.644 496.2C383.384 496.2 379.869 494.914 377.031 492.375L375.697 493.865C378.939 496.766 382.944 498.2 387.644 498.2V496.2ZM377.041 492.384C374.254 489.817 372.804 486.152 372.804 481.24H370.804C370.804 486.568 372.393 490.823 375.686 493.856L377.041 492.384ZM372.804 481.24C372.804 477.81 373.949 474.943 376.242 472.576L374.806 471.184C372.139 473.937 370.804 477.31 370.804 481.24H372.804ZM376.253 472.565C378.636 470.027 381.217 468.331 383.992 467.431L383.375 465.529C380.231 466.549 377.371 468.453 374.795 471.195L376.253 472.565ZM383.985 467.434C385.463 466.967 387.186 466.535 389.16 466.141L388.768 464.179C386.742 464.585 384.945 465.033 383.383 465.526L383.985 467.434ZM389.189 466.134C391.269 465.654 392.665 465.335 393.381 465.176L392.947 463.224C392.222 463.385 390.818 463.706 388.739 464.186L389.189 466.134ZM393.36 465.181C397.369 464.379 400.414 463.65 402.469 462.992L401.859 461.088C399.914 461.71 396.958 462.421 392.968 463.219L393.36 465.181ZM402.503 462.981C404.599 462.226 406.166 461.117 406.713 459.476L404.815 458.844C404.562 459.603 403.729 460.414 401.825 461.099L402.503 462.981ZM406.764 459.16C406.764 453.274 405.62 448.288 403.268 444.256L401.54 445.264C403.668 448.912 404.764 453.526 404.764 459.16H406.764ZM403.275 444.27C400.906 440.058 396.895 438 391.484 438V440C396.313 440 399.581 441.782 401.532 445.25L403.275 444.27ZM391.484 438C388.007 438 385.275 439.282 383.461 441.912L385.107 443.048C386.493 441.038 388.561 440 391.484 440V438ZM383.456 441.918C381.786 444.38 381.004 447.64 381.004 451.6H383.004C383.004 447.88 383.742 445.06 385.111 443.042L383.456 441.918ZM381.004 451.6C381.004 452.731 381.214 453.775 381.836 454.52L383.372 453.24C383.193 453.025 383.004 452.549 383.004 451.6H381.004ZM381.897 454.587C382.295 454.986 382.846 455.191 383.381 455.307C383.938 455.428 384.606 455.48 385.364 455.48V453.48C384.682 453.48 384.17 453.432 383.806 453.353C383.626 453.314 383.5 453.271 383.415 453.232C383.33 453.193 383.306 453.168 383.311 453.173L381.897 454.587ZM385.364 455.48C386.4 455.48 387.35 455.243 388.174 454.728L387.114 453.032C386.658 453.317 386.088 453.48 385.364 453.48V455.48ZM388.174 454.728C388.993 454.216 389.604 453.46 389.604 452.44H387.604C387.604 452.54 387.575 452.744 387.114 453.032L388.174 454.728ZM388.604 453.44H389.684V451.44H388.604V453.44ZM388.684 452.44V455.68H390.684V452.44H388.684ZM389.684 454.68H373.964V456.68H389.684V454.68ZM374.964 455.68C374.964 453.005 375.742 450.34 377.341 447.674L375.626 446.646C373.866 449.58 372.964 452.595 372.964 455.68H374.964ZM377.348 447.664C378.939 444.935 381.136 442.736 383.955 441.06L382.933 439.34C379.832 441.184 377.388 443.625 375.62 446.656L377.348 447.664ZM383.972 441.049C386.768 439.311 389.864 438.44 393.284 438.44V436.44C389.504 436.44 386.04 437.409 382.916 439.351L383.972 441.049ZM393.284 438.44C397.932 438.44 401.534 439.524 404.19 441.589L405.418 440.011C402.314 437.596 398.236 436.44 393.284 436.44V438.44ZM404.214 441.608C407.035 443.666 408.986 446.156 410.111 449.079L411.977 448.361C410.702 445.044 408.493 442.254 405.393 439.992L404.214 441.608ZM410.122 449.108C411.355 452.036 411.964 454.944 411.964 457.84H413.964C413.964 454.656 413.293 451.484 411.966 448.332L410.122 449.108ZM411.964 457.84V483.88H413.964V457.84H411.964ZM411.964 483.88C411.964 486.921 412.284 489.334 413.004 491.022C413.369 491.877 413.858 492.597 414.508 493.106C415.173 493.625 415.953 493.88 416.804 493.88V491.88C416.375 491.88 416.034 491.76 415.74 491.529C415.43 491.288 415.119 490.883 414.844 490.238C414.284 488.926 413.964 486.839 413.964 483.88H411.964ZM416.804 493.88C418.109 493.88 419.096 493.014 419.816 491.844L418.112 490.796C417.552 491.706 417.098 491.88 416.804 491.88V493.88ZM419.805 491.861C420.609 490.61 421.044 489.305 421.044 487.96H419.044C419.044 488.855 418.759 489.79 418.123 490.779L419.805 491.861ZM420.044 488.96H421.244V486.96H420.044V488.96ZM420.244 487.96C420.244 490.698 419.403 492.676 417.828 494.045L419.14 495.555C421.245 493.724 422.244 491.142 422.244 487.96H420.244ZM417.811 494.06C416.23 495.497 414.428 496.2 412.364 496.2V498.2C414.94 498.2 417.218 497.303 419.157 495.54L417.811 494.06ZM412.364 496.2C411.151 496.2 410.227 495.933 409.529 495.468C408.836 495.006 408.283 494.294 407.903 493.256L406.025 493.944C406.524 495.306 407.312 496.394 408.419 497.132C409.521 497.867 410.857 498.2 412.364 498.2V496.2ZM407.913 493.284C407.162 491.033 406.764 487.797 406.764 483.52H404.764C404.764 487.883 405.165 491.367 406.015 493.916L407.913 493.284ZM406.764 483.52V478H404.764V483.52H406.764ZM404.764 478C404.764 478.426 404.652 479.135 404.377 480.175C404.107 481.197 403.697 482.477 403.143 484.022L405.025 484.698C405.59 483.123 406.021 481.783 406.311 480.685C406.596 479.605 406.764 478.694 406.764 478H404.764ZM403.135 484.044C402.152 486.993 400.366 489.784 397.737 492.413L399.151 493.827C401.962 491.016 403.936 487.967 405.033 484.676L403.135 484.044ZM397.737 492.413C395.235 494.914 391.906 496.2 387.644 496.2V498.2C392.342 498.2 396.213 496.766 399.151 493.827L397.737 492.413ZM390.404 494.84C393.418 494.84 396.173 493.634 398.645 491.332L397.283 489.868C395.115 491.886 392.83 492.84 390.404 492.84V494.84ZM398.645 491.332C401.064 489.08 402.98 486.413 404.393 483.338L402.575 482.503C401.268 485.347 399.504 487.8 397.283 489.868L398.645 491.332ZM404.393 483.338C405.779 480.319 406.524 477.687 406.524 475.48H404.524C404.524 477.273 403.908 479.601 402.575 482.503L404.393 483.338ZM406.524 475.48V461.8H404.524V475.48H406.524ZM404.524 461.8C404.524 461.563 404.627 461.405 404.681 461.34C404.729 461.282 404.756 461.275 404.709 461.303C404.616 461.359 404.409 461.45 404.037 461.562L404.611 463.478C405.039 463.35 405.432 463.201 405.738 463.017C405.968 462.88 406.524 462.501 406.524 461.8H404.524ZM404.037 461.562C403.277 461.79 402.31 462.023 401.128 462.259L401.52 464.221C402.738 463.977 403.771 463.73 404.611 463.478L404.037 461.562ZM401.071 462.273C395.866 463.634 392.027 464.764 389.58 465.661L390.268 467.539C392.621 466.676 396.382 465.566 401.577 464.207L401.071 462.273ZM389.584 465.66C385.692 467.067 382.738 469.09 380.828 471.781L382.459 472.939C384.069 470.67 386.636 468.853 390.264 467.54L389.584 465.66ZM380.837 471.769C378.949 474.344 378.004 477.272 378.004 480.52H380.004C380.004 477.688 380.819 475.176 382.45 472.951L380.837 471.769ZM378.004 480.52C378.004 484.234 379.021 487.558 381.067 490.457L382.701 489.303C380.907 486.762 380.004 483.846 380.004 480.52H378.004ZM381.087 490.484C383.299 493.404 386.451 494.84 390.404 494.84V492.84C386.997 492.84 384.469 491.636 382.681 489.276L381.087 490.484Z" fill="#F5F5F5"/>
<path d="M316.667 189.261H267.308L261.383 179.138L301.33 161.981L316.667 189.261Z" fill="#95573A"/>
<path opacity="0.2" d="M301.329 161.981L296.841 163.906L308.386 184.441H264.485L267.308 189.261H311.096H313.92H316.667L301.329 161.981Z" fill="#AF3B3B"/>
<path d="M369.357 127.617C375.206 129.401 379.052 132.823 378.046 135.374C377.045 137.882 371.473 138.461 365.679 136.725C359.885 134.94 355.984 131.472 357.044 128.968C358.045 126.459 363.563 125.833 369.357 127.617Z" fill="#7F4545"/>
<path d="M378.046 135.374L372.534 149.014C372.534 149.066 372.475 149.16 372.42 149.207C371.082 151.762 365.288 151.908 360.162 150.365C355.036 148.821 350.581 145.545 351.418 142.796C351.418 142.749 351.472 142.655 351.472 142.603L357.044 128.968C355.983 131.472 359.884 134.94 365.678 136.725C371.473 138.461 377.045 137.882 378.046 135.374Z" fill="#7C3B0C"/>
<path d="M351.418 142.797C350.581 145.546 355.036 148.821 360.162 150.365C365.288 151.909 371.082 151.763 372.42 149.207L366.963 162.654C365.847 165.404 359.884 165.596 354.591 164.005C349.41 162.415 344.955 159.139 345.956 156.343C345.956 156.296 345.956 156.296 345.956 156.244L351.418 142.797Z" fill="#FFD2A6"/>
<path d="M361.332 176.487C360.053 179.043 354.205 179.188 349.073 177.645C344.008 176.101 339.546 172.872 340.33 170.124L345.956 156.342C344.954 159.138 349.41 162.414 354.591 164.005C359.885 165.596 365.847 165.402 366.963 162.654L361.446 176.294C361.392 176.341 361.392 176.44 361.332 176.487Z" fill="#7C3B0C"/>
<path d="M340.444 169.884C339.606 172.633 344.062 175.908 349.187 177.452C354.313 178.997 360.107 178.85 361.446 176.294L355.989 189.742C354.873 192.491 348.911 192.684 343.616 191.092C338.436 189.501 333.078 189.874 334.079 187.077C334.079 187.03 334.982 183.383 334.982 183.331L340.444 169.884Z" fill="#FFD2A6"/>
<path opacity="0.2" d="M371.533 137.699L366.962 149.014C366.962 149.066 366.902 149.16 366.848 149.207L361.391 162.654L355.874 176.294L352.566 184.442H334.862C334.993 186.117 333.736 187.859 336.254 189.262H350.613L350.417 189.742C349.971 190.843 348.725 191.516 347.076 191.846C351.255 192.462 355.112 191.898 355.988 189.742L356.184 189.262L358.099 184.541L361.445 176.294L366.962 162.654L372.42 149.207C372.474 149.16 372.533 149.066 372.533 149.014L378.045 135.374C377.398 136.998 374.831 137.798 371.533 137.699Z" fill="#AF3B3B"/>
<path d="M201.42 197.536L248.543 210.244L257.683 202.106L225.446 175.437L201.42 197.536Z" fill="#95573A"/>
<path opacity="0.3" d="M221.235 184.432L228.379 177.866L225.446 175.437L215.669 184.432H221.235Z" fill="white"/>
<path d="M225.446 175.437C223.532 177.198 225.642 185.59 235.805 193.982C245.915 202.365 255.714 203.847 257.683 202.107C259.598 200.351 257.433 191.94 247.324 183.562C237.209 175.179 227.362 173.687 225.446 175.437Z" fill="#95573A"/>
<path opacity="0.2" d="M247.325 183.561C237.7 175.587 228.407 173.884 225.866 175.244C230.066 176.162 235.838 178.661 241.753 183.561C251.862 191.939 254.028 200.35 252.112 202.106C252.014 202.191 251.818 202.228 251.688 202.298C254.659 202.948 256.868 202.826 257.683 202.106C259.599 200.35 257.434 191.939 247.325 183.561Z" fill="#AF3B3B"/>
<path opacity="0.3" d="M232.862 184.456C230.175 179.998 229.858 176.502 231.018 175.437C231.11 175.353 231.306 175.316 231.437 175.245C228.456 174.591 226.242 174.713 225.447 175.437C224.282 176.506 224.609 180.027 227.324 184.512L232.862 184.456Z" fill="white"/>
<path opacity="0.3" d="M302.412 163.906L301.33 161.981L261.383 179.138L264.479 184.432H270.05L266.955 179.138L302.412 163.906Z" fill="white"/>
<path d="M301.33 161.981C302.554 164.151 297.652 171.62 285.061 177.019C272.525 182.418 262.662 181.307 261.383 179.138C260.153 176.972 265.116 169.498 277.651 164.099C290.187 158.705 300.106 159.811 301.33 161.981Z" fill="#95573A"/>
<path opacity="0.2" d="M301.33 161.981C300.623 160.734 296.977 159.882 291.662 160.376C293.854 160.654 295.339 161.243 295.758 161.981C296.983 164.151 292.08 171.62 279.49 177.019C274.179 179.306 269.402 180.38 265.501 180.742C269.745 181.283 276.792 180.577 285.061 177.019C297.652 171.62 302.554 164.15 301.33 161.981Z" fill="#AF3B3B"/>
<path opacity="0.3" d="M266.955 179.138C265.725 176.972 270.687 169.498 283.223 164.099C288.539 161.812 293.321 160.739 297.233 160.376C292.983 159.84 285.922 160.541 277.652 164.099C265.117 169.498 260.154 176.972 261.384 179.138C262.119 180.389 265.763 181.241 271.074 180.742C268.881 180.464 267.39 179.876 266.955 179.138Z" fill="white"/>
<path d="M367.071 189.261H288.376H281.759H280.144H255.023H194.831C195.032 187.43 174.629 299.111 236.611 362.77H255.023H280.144H281.759H288.376H325.291C387.273 299.111 366.87 187.43 367.071 189.261Z" fill="#9D705C"/>
<path opacity="0.2" d="M330.177 357.419C386.147 293.059 366.876 187.478 367.071 189.262H350.358C350.167 187.52 368.568 288.489 316.994 353.131H228.368L232.156 357.951H312.979C311.548 359.579 310.106 361.198 308.578 362.77H325.292C326.821 361.198 328.263 359.579 329.694 357.951H329.748L330.177 357.419Z" fill="#AF3B3B"/>
<path opacity="0.3" d="M211.545 189.261H194.831C195.021 187.515 176.55 288.592 228.194 353.229L244.827 353.121C193.285 288.475 211.736 187.52 211.545 189.261Z" fill="white"/>
<path d="M88.5006 324.213H177.643V338.671H88.5006V324.213Z" fill="#7C3B0C"/>
<path d="M82.9287 353.131H172.072V367.59H82.9287V353.131Z" fill="#7C3B0C"/>
<path d="M71.7863 338.671H160.928V353.131H71.7863V338.671Z" fill="#7C3B0C"/>
<path opacity="0.2" d="M71.7863 338.671H160.928V343.491H71.7863V338.671Z" fill="#AF3B3B"/>
<path opacity="0.2" d="M82.9287 353.131H172.072V357.95H82.9287V353.131Z" fill="#AF3B3B"/>
<path opacity="0.3" d="M71.7863 343.491H77.3575V353.131H71.7863V343.491Z" fill="white"/>
<path opacity="0.2" d="M155.358 343.491H160.929V353.131H155.358V343.491Z" fill="#AF3B3B"/>
<path opacity="0.3" d="M82.9287 357.951H88.4999V367.59H82.9287V357.951Z" fill="white"/>
<path opacity="0.2" d="M166.5 357.951H172.072V367.59H166.5V357.951Z" fill="#AF3B3B"/>
<path opacity="0.3" d="M88.5006 324.213H94.0718V338.671H88.5006V324.213Z" fill="white"/>
<path opacity="0.2" d="M172.072 324.213H177.644V338.671H172.072V324.213Z" fill="#AF3B3B"/>
<path d="M336.428 367.59H225.001L208.286 357.951H353.143L336.428 367.59Z" fill="#9D705C"/>
<path opacity="0.3" d="M208.286 357.951L225.001 367.59H241.714L225.001 357.951H208.286Z" fill="white"/>
<path opacity="0.2" d="M353.143 357.951L336.428 367.59H319.714L336.428 357.951H353.143Z" fill="#AF3B3B"/>
<path d="M370.129 213.736V223.601C370.129 223.601 406.072 213.36 406.072 232.639C406.072 251.917 362.632 295.219 362.632 295.219L355.602 315.683C355.602 315.683 417.214 256.736 417.214 232.639C417.214 198.881 370.129 213.736 370.129 213.736Z" fill="#D49073"/>
<path opacity="0.2" d="M388.568 210.559C400.179 211.171 411.642 215.981 411.642 232.639C411.642 251.135 375.358 290.15 358.485 307.287L355.601 315.684C355.601 315.684 417.214 256.737 417.214 232.639C417.214 213.298 401.768 209.924 388.568 210.559Z" fill="#AF3B3B"/>
<g opacity="0.2">
<path d="M362.632 295.219L355.602 315.683C355.602 315.683 358.861 312.558 363.856 307.494C366.065 301.074 367.888 294.607 369.389 288.187C365.336 292.527 362.632 295.219 362.632 295.219Z" fill="#AF3B3B"/>
<path d="M370.129 223.601C370.129 223.601 372.311 222.98 375.586 222.335C375.488 218.809 375.337 215.506 375.151 212.437C372.077 213.124 370.129 213.735 370.129 213.735V223.601Z" fill="#AF3B3B"/>
</g>
<path opacity="0.2" d="M369.357 127.617C366 126.582 362.768 126.384 360.423 126.864C361.516 127.028 362.637 127.264 363.785 127.617C369.634 129.401 373.481 132.823 372.475 135.374C372.051 136.433 370.788 137.12 369.068 137.464C373.503 138.128 377.246 137.383 378.046 135.374C379.052 132.823 375.206 129.401 369.357 127.617Z" fill="#AF3B3B"/>
<path opacity="0.3" d="M371.251 136.725C365.457 134.94 361.555 131.472 362.615 128.968C363.035 127.914 364.285 127.212 365.995 126.864C361.571 126.181 357.85 126.958 357.044 128.968C355.984 131.472 359.884 134.94 365.679 136.725C369.031 137.732 372.279 137.934 374.64 137.463C373.541 137.298 372.404 137.073 371.251 136.725Z" fill="white"/>
<path opacity="0.3" d="M340.428 184.498C340.389 184.135 340.428 183.778 340.553 183.43C340.553 183.383 340.553 183.383 340.553 183.331L345.897 170.171C345.902 170.157 345.897 170.143 345.902 170.124L351.528 156.343C351.528 156.296 351.528 156.296 351.528 156.244L356.99 142.797C356.99 142.75 357.045 142.656 357.045 142.604L360.424 134.329C357.779 132.616 356.36 130.592 357.045 128.968L351.473 142.603C351.473 142.655 351.419 142.749 351.419 142.796L345.956 156.243V156.342L340.33 170.124C340.325 170.142 340.33 170.157 340.325 170.171L334.982 183.33V183.429C334.862 183.759 334.819 184.098 334.846 184.441L340.428 184.498Z" fill="white"/>
<path opacity="0.2" d="M210.462 189.219H253.005C251.709 187.661 250.132 186.056 248.282 184.432H215.669L210.462 189.219Z" fill="#AF3B3B"/>
<path d="M378.215 360.36H183.215C181.675 360.36 180.429 359.283 180.429 357.951C180.429 356.619 181.675 355.541 183.215 355.541H378.215C379.754 355.541 381 356.619 381 357.951C381 359.283 379.754 360.36 378.215 360.36Z" fill="#3A3847"/>
<path d="M333.643 355.54C333.061 355.54 332.473 355.385 331.973 355.061C330.743 354.26 330.493 352.749 331.412 351.685C341.44 340.107 349.498 325.478 355.374 308.209C357.452 302.053 359.232 295.717 360.657 289.387C366.397 264.285 367.132 239.486 366.739 223.092C366.739 220.325 366.631 217.694 366.533 215.232L366.457 213.439C365.749 199.036 364.324 189.669 364.308 189.575C364.106 188.257 365.179 187.048 366.702 186.869C368.193 186.677 369.629 187.618 369.836 188.941C369.89 189.331 371.305 198.618 372.028 213.256L372.099 215.063C372.203 217.581 372.312 220.264 372.312 223.045C372.708 239.623 371.958 264.798 366.125 290.314C364.667 296.785 362.844 303.262 360.717 309.564C354.656 327.393 346.299 342.534 335.875 354.575C335.324 355.206 334.486 355.54 333.643 355.54Z" fill="#3A3847"/>
<path d="M367.072 191.671H280.715C279.175 191.671 277.93 190.593 277.93 189.261C277.93 187.929 279.175 186.851 280.715 186.851H367.072C368.611 186.851 369.857 187.929 369.857 189.261C369.857 190.593 368.611 191.671 367.072 191.671Z" fill="#3A3847"/>
<path d="M227.786 355.54C226.942 355.54 226.105 355.206 225.555 354.575C179.33 301.258 189.319 205.974 191.729 190.056C191.594 189.731 191.544 189.374 191.588 189.007L191.888 189.035C192.024 188.244 192.116 187.812 192.149 187.774C192.905 186.917 194.227 186.602 195.392 186.997C196.55 187.397 197.257 188.437 197.127 189.51C197.122 189.581 197.111 189.647 197.094 189.713C196.561 193.121 181.62 295.868 230.017 351.686C230.936 352.75 230.686 354.26 229.456 355.061C228.955 355.385 228.368 355.54 227.786 355.54Z" fill="#3A3847"/>
<path d="M280.715 191.671H194.357C192.817 191.671 191.571 190.593 191.571 189.261C191.571 187.929 192.817 186.851 194.357 186.851H280.714C282.254 186.851 283.5 187.929 283.5 189.261C283.5 190.593 282.255 191.671 280.715 191.671Z" fill="#3A3847"/>
<path d="M336.428 370H225.001C224.451 370 223.912 369.859 223.455 369.595L206.741 359.956C205.462 359.216 205.114 357.72 205.969 356.614C206.828 355.508 208.564 355.216 209.832 355.946L225.844 365.181H335.586L351.598 355.946C352.865 355.211 354.596 355.504 355.461 356.614C356.316 357.72 355.967 359.216 354.689 359.956L337.974 369.595C337.517 369.858 336.979 370 336.428 370Z" fill="#3A3847"/>
<path d="M160.929 355.54C159.389 355.54 158.144 354.463 158.144 353.131V338.671C158.144 337.339 159.389 336.262 160.929 336.262C162.469 336.262 163.715 337.339 163.715 338.671V353.131C163.715 354.463 162.469 355.54 160.929 355.54Z" fill="#3A3847"/>
<path d="M82.9287 355.54H71.7863C70.2465 355.54 69 354.463 69 353.131V338.671C69 337.339 70.2465 336.262 71.7863 336.262H88.4999C90.0397 336.262 91.2855 337.339 91.2855 338.671C91.2855 340.003 90.0397 341.081 88.4999 341.081H74.5719V350.721H82.9287C84.4685 350.721 85.7143 351.798 85.7143 353.131C85.7143 354.463 84.4685 355.54 82.9287 355.54Z" fill="#3A3847"/>
<path d="M172.072 370H82.9287C81.3889 370 80.1431 368.922 80.1431 367.59V353.131C80.1431 351.799 81.3889 350.721 82.9287 350.721H172.071C173.611 350.721 174.857 351.799 174.857 353.131V367.59C174.858 368.922 173.611 370 172.072 370ZM85.7143 365.181H169.286V355.541H85.7143V365.181Z" fill="#3A3847"/>
<path d="M116.357 345.901C114.818 345.901 113.572 344.824 113.572 343.491V338.671C113.572 337.339 114.818 336.262 116.357 336.262C117.897 336.262 119.143 337.339 119.143 338.671V343.491C119.143 344.824 117.897 345.901 116.357 345.901Z" fill="#3A3847"/>
<path d="M94.0717 345.901C92.5326 345.901 91.2861 344.824 91.2861 343.491V338.671C91.2861 337.339 92.5326 336.262 94.0717 336.262C95.6116 336.262 96.858 337.339 96.858 338.671V343.491C96.858 344.824 95.6116 345.901 94.0717 345.901Z" fill="#3A3847"/>
<path d="M138.643 345.901C137.103 345.901 135.857 344.824 135.857 343.491V338.671C135.857 337.339 137.103 336.262 138.643 336.262C140.183 336.262 141.429 337.339 141.429 338.671V343.491C141.429 344.824 140.183 345.901 138.643 345.901Z" fill="#3A3847"/>
<path d="M127.501 360.36C125.961 360.36 124.715 359.283 124.715 357.951V353.131C124.715 351.799 125.961 350.721 127.501 350.721C129.04 350.721 130.286 351.799 130.286 353.131V357.951C130.286 359.282 129.04 360.36 127.501 360.36Z" fill="#3A3847"/>
<path d="M149.786 360.36C148.246 360.36 147 359.283 147 357.951V353.131C147 351.799 148.246 350.721 149.786 350.721C151.326 350.721 152.571 351.799 152.571 353.131V357.951C152.572 359.282 151.326 360.36 149.786 360.36Z" fill="#3A3847"/>
<path d="M105.215 360.36C103.675 360.36 102.43 359.283 102.43 357.951V353.131C102.43 351.799 103.675 350.721 105.215 350.721C106.755 350.721 108.001 351.799 108.001 353.131V357.951C108.001 359.282 106.755 360.36 105.215 360.36Z" fill="#3A3847"/>
<path d="M177.643 341.081H88.5004C86.9606 341.081 85.7148 340.003 85.7148 338.671V324.213C85.7148 322.881 86.9606 321.803 88.5004 321.803H177.643C179.183 321.803 180.429 322.881 180.429 324.213V338.671C180.429 340.003 179.183 341.081 177.643 341.081ZM91.2861 336.262H174.858V326.623H91.2861V336.262Z" fill="#3A3847"/>
<path d="M133.072 331.442C131.532 331.442 130.286 330.364 130.286 329.032V324.213C130.286 322.881 131.532 321.803 133.072 321.803C134.611 321.803 135.857 322.881 135.857 324.213V329.032C135.857 330.364 134.611 331.442 133.072 331.442Z" fill="#3A3847"/>
<path d="M110.786 331.442C109.246 331.442 108.001 330.364 108.001 329.032V324.213C108.001 322.881 109.246 321.803 110.786 321.803C112.326 321.803 113.572 322.881 113.572 324.213V329.032C113.572 330.364 112.326 331.442 110.786 331.442Z" fill="#3A3847"/>
<path d="M155.358 331.442C153.818 331.442 152.572 330.364 152.572 329.032V324.213C152.572 322.881 153.818 321.803 155.358 321.803C156.898 321.803 158.143 322.881 158.143 324.213V329.032C158.143 330.364 156.898 331.442 155.358 331.442Z" fill="#3A3847"/>
<path d="M361.5 312.163C360.831 312.163 360.162 311.956 359.628 311.538C358.485 310.643 358.404 309.118 359.439 308.135C359.988 307.607 414.429 255.533 414.429 232.639C414.429 224.666 411.773 219.032 406.535 215.883C394.88 208.889 373.835 215.548 373.617 215.615C372.186 216.076 370.582 215.45 370.037 214.203C369.499 212.955 370.227 211.572 371.664 211.101C372.637 210.786 395.642 203.485 409.696 211.916C416.534 216.016 420 222.986 420 232.64C420 257.383 365.864 309.185 363.563 311.374C363.013 311.899 362.257 312.163 361.5 312.163Z" fill="#3A3847"/>
<path d="M367.071 292.884C366.419 292.884 365.766 292.687 365.238 292.287C364.079 291.411 363.959 289.89 364.977 288.888C365.358 288.507 403.286 250.792 403.286 232.639C403.286 229.169 402.078 226.726 399.585 225.173C392.942 221.022 378.513 223.846 373.524 225.286C372.06 225.705 370.488 225.023 369.998 223.757C369.514 222.496 370.303 221.131 371.761 220.712C372.598 220.467 392.523 214.833 402.838 221.257C406.831 223.752 408.856 227.579 408.856 232.639C408.856 252.595 370.787 290.461 369.165 292.061C368.617 292.606 367.844 292.884 367.071 292.884Z" fill="#3A3847"/>
<path d="M372.061 140.132C369.759 140.132 367.234 139.742 364.77 139.003C359.96 137.525 356.233 135.03 354.765 132.329C353.992 130.898 353.872 129.449 354.427 128.14C355.929 124.393 363.133 123.146 370.293 125.344C377.867 127.655 382.241 132.202 380.685 136.156C379.673 138.687 376.528 140.132 372.061 140.132ZM363.013 129.006C360.701 129.006 359.743 129.589 359.678 129.754C359.65 129.82 359.645 129.98 359.808 130.281C360.462 131.486 362.871 133.303 366.615 134.456C368.482 135.016 370.37 135.313 372.062 135.313C374.499 135.313 375.359 134.701 375.414 134.588C375.641 134.004 373.607 131.467 368.433 129.891C366.555 129.312 364.683 129.006 363.013 129.006Z" fill="#3A3847"/>
<path d="M358.099 186.851C357.794 186.851 357.479 186.809 357.175 186.715C355.722 186.272 354.96 184.897 355.472 183.641L358.704 175.686C359.216 174.434 360.804 173.771 362.258 174.213C363.71 174.656 364.472 176.03 363.96 177.287L360.728 185.242C360.325 186.23 359.248 186.851 358.099 186.851Z" fill="#3A3847"/>
<path d="M361.446 178.704C361.141 178.704 360.831 178.662 360.527 178.572C359.074 178.13 358.306 176.755 358.819 175.498L369.792 148.412C370.304 147.155 371.871 146.482 373.346 146.934C374.793 147.376 375.56 148.75 375.049 150.007L364.074 177.09C363.671 178.083 362.599 178.704 361.446 178.704Z" fill="#3A3847"/>
<path d="M372.534 151.424C372.23 151.424 371.919 151.381 371.615 151.292C370.162 150.85 369.395 149.475 369.907 148.218L375.419 134.578C375.919 133.326 377.513 132.662 378.966 133.1C380.418 133.538 381.186 134.912 380.674 136.169L375.163 149.809C374.765 150.803 373.688 151.424 372.534 151.424Z" fill="#3A3847"/>
<path d="M334.536 186.851C334.23 186.851 333.921 186.809 333.617 186.715C332.164 186.276 331.396 184.897 331.908 183.645L343.329 155.537C343.84 154.285 345.451 153.645 346.882 154.068C348.335 154.51 349.096 155.889 348.585 157.142L337.164 185.236C336.761 186.23 335.684 186.851 334.536 186.851Z" fill="#3A3847"/>
<path d="M345.956 158.654C345.651 158.654 345.335 158.611 345.031 158.517C343.578 158.078 342.816 156.699 343.328 155.448L348.791 142C349.297 140.739 350.896 140.075 352.344 140.522C353.796 140.964 354.559 142.339 354.047 143.596L348.584 157.044C348.181 158.037 347.104 158.654 345.956 158.654Z" fill="#3A3847"/>
<path d="M351.473 145.013C351.162 145.013 350.852 144.971 350.542 144.876C349.095 144.434 348.333 143.055 348.844 141.803L354.416 128.163C354.937 126.906 356.527 126.261 357.973 126.694C359.421 127.136 360.183 128.515 359.671 129.767L354.1 143.408C353.693 144.397 352.621 145.013 351.473 145.013Z" fill="#3A3847"/>
<path d="M366.528 153.763C364.166 153.763 361.62 153.358 359.248 152.643C357.795 152.205 357.028 150.831 357.529 149.574C358.039 148.318 359.629 147.653 361.076 148.092C365.853 149.527 369.537 148.882 369.885 148.214C369.918 148.148 369.956 148.082 369.999 148.021C370.435 147.188 371.408 146.604 372.535 146.604C374.075 146.604 375.321 147.682 375.321 149.014C375.321 149.409 375.168 149.861 374.929 150.261C373.595 152.727 370.298 153.763 366.528 153.763Z" fill="#3A3847"/>
<path d="M360.162 152.774C359.857 152.774 359.547 152.732 359.248 152.642C353.007 150.765 347.392 146.566 348.725 142.184C348.73 142.156 348.741 142.128 348.746 142.099C349.012 141.011 350.133 140.193 351.472 140.193C353.012 140.193 354.258 141.27 354.258 142.602C354.258 142.815 354.209 143.093 354.138 143.319C354.126 143.352 354.122 143.38 354.11 143.413C353.892 144.132 356.293 146.65 361.074 148.091C362.528 148.529 363.3 149.903 362.794 151.16C362.393 152.153 361.315 152.774 360.162 152.774Z" fill="#3A3847"/>
<path d="M361.054 167.422C358.687 167.422 356.108 167.012 353.676 166.279C352.223 165.845 351.456 164.471 351.956 163.214C352.468 161.953 354.051 161.294 355.504 161.727C360.363 163.186 364.068 162.522 364.335 161.859C364.846 160.602 366.435 159.938 367.888 160.381C369.335 160.823 370.102 162.198 369.59 163.455C368.453 166.25 365.048 167.422 361.054 167.422Z" fill="#3A3847"/>
<path d="M354.59 166.415C354.28 166.415 353.965 166.368 353.66 166.274C347.36 164.344 341.8 160.112 343.256 155.736C343.566 154.686 344.661 153.881 345.956 153.881C347.495 153.881 348.741 154.912 348.741 156.244C348.741 156.488 348.697 156.823 348.616 157.054C348.366 157.76 350.711 160.259 355.52 161.732C356.973 162.179 357.729 163.554 357.218 164.81C356.81 165.798 355.738 166.415 354.59 166.415Z" fill="#3A3847"/>
<path d="M355.482 181.048C353.116 181.048 350.553 180.638 348.159 179.918C346.706 179.48 345.939 178.111 346.439 176.854C346.951 175.597 348.561 174.934 349.987 175.366C354.705 176.792 358.458 176.172 358.774 175.531C358.812 175.455 358.855 175.38 358.899 175.31C359.052 175.046 359.259 174.778 359.476 174.59C360.564 173.648 362.327 173.648 363.415 174.59C364.312 175.366 364.47 176.543 363.882 177.461C363.871 177.48 363.861 177.504 363.85 177.523C362.551 180.008 359.264 181.048 355.482 181.048Z" fill="#3A3847"/>
<path d="M349.073 180.055C348.769 180.055 348.453 180.013 348.148 179.918C342.011 178.049 336.44 173.917 337.609 169.606C337.669 169.323 337.768 169.027 337.882 168.829C338.563 167.629 340.243 167.144 341.604 167.718C342.817 168.232 343.41 169.398 343.083 170.486C343.072 170.561 343.056 170.632 343.035 170.702C342.834 171.418 345.249 173.927 349.999 175.371C351.452 175.813 352.213 177.188 351.702 178.445C351.298 179.433 350.221 180.055 349.073 180.055Z" fill="#3A3847"/>
<path d="M227.508 186.851C226.486 186.851 225.495 186.357 225.011 185.51C222.676 181.424 221.153 176.181 223.879 173.715C224.935 172.755 226.709 172.717 227.818 173.639C228.874 174.51 228.961 175.927 228.064 176.892C227.846 177.551 228.031 179.918 230.006 183.373C230.686 184.564 230.12 186.009 228.743 186.602C228.346 186.772 227.928 186.851 227.508 186.851Z" fill="#3A3847"/>
<path d="M248.124 186.851C247.302 186.851 246.486 186.536 245.936 185.933C245.827 185.83 245.392 185.425 245.343 185.364C236.599 177.839 228.846 176.85 227.573 177.268C226.49 178.21 224.869 178.115 223.775 177.179C222.687 176.238 222.834 174.619 223.922 173.677C225.853 172.002 229.782 171.945 234.711 173.536C238.205 174.666 243.612 177.085 249.532 182.206C249.994 182.63 250.18 182.799 250.343 182.988C251.273 184.052 251.028 185.562 249.804 186.363C249.299 186.692 248.712 186.851 248.124 186.851Z" fill="#3A3847"/>
<path d="M215.474 186.851C214.762 186.851 214.054 186.616 213.51 186.15C212.416 185.208 212.416 183.683 213.498 182.743L223.918 173.682C225.007 172.737 226.769 172.737 227.857 173.673C228.95 174.609 228.95 176.134 227.868 177.08L217.449 186.14C216.905 186.612 216.186 186.851 215.474 186.851Z" fill="#3A3847"/>
<path d="M268.185 183.354C263.472 183.354 260.067 182.206 258.902 180.234C258.2 179.048 258.75 177.598 260.115 176.991C261.405 176.422 262.977 176.807 263.744 177.862C265.012 178.624 272.607 179.692 283.821 174.859C295.252 169.959 298.8 163.939 298.724 162.762C298.049 161.567 298.675 160.259 300.057 159.675C301.455 159.086 303.152 159.727 303.832 160.922C306.14 165.012 299.507 173.513 286.297 179.175C279.551 182.083 273.146 183.354 268.185 183.354Z" fill="#3A3847"/>
<path d="M261.547 181.665C260.464 181.665 259.387 181.086 258.881 180.201C256.573 176.129 263.206 167.629 276.411 161.943C287.064 157.355 295.868 157.204 300.155 158.461C301.971 158.992 303.213 159.821 303.832 160.922C304.508 162.117 303.935 163.563 302.554 164.146C301.259 164.692 299.708 164.297 298.957 163.243C297.663 162.49 290.051 161.449 278.892 166.26C267.482 171.169 263.924 177.184 263.989 178.361C264.664 179.556 264.043 180.855 262.661 181.444C262.309 181.594 261.928 181.665 261.547 181.665Z" fill="#3A3847"/>
<path d="M264.447 186.851C263.429 186.851 262.444 186.361 261.955 185.519L258.892 180.215C258.206 179.024 258.761 177.579 260.138 176.981C261.515 176.388 263.185 176.868 263.875 178.059L266.938 183.363C267.624 184.554 267.069 185.999 265.692 186.597C265.29 186.767 264.865 186.851 264.447 186.851Z" fill="#3A3847"/>
<path d="M313.92 186.851C312.887 186.851 311.896 186.352 311.412 185.491L298.822 163.03C298.152 161.835 298.729 160.389 300.117 159.811C301.504 159.231 303.163 159.731 303.838 160.926L316.428 183.387C317.097 184.587 316.52 186.027 315.134 186.607C314.741 186.772 314.328 186.851 313.92 186.851Z" fill="#3A3847"/>
<path d="M277.929 129.015C277.401 129.015 276.863 128.883 276.39 128.61C275.111 127.876 274.763 126.379 275.606 125.268C276.008 124.746 285.334 112.32 275.96 104.21C265.867 95.4791 271.319 82.6389 275.611 77.0714C276.466 75.9648 278.191 75.6688 279.469 76.403C280.748 77.1377 281.096 78.6289 280.252 79.7403C279.85 80.2671 270.524 92.6926 279.899 100.802C289.992 109.529 284.539 122.369 280.247 127.941C279.708 128.638 278.827 129.015 277.929 129.015Z" fill="#3A3847"/>
<path d="M305.786 129.015C305.258 129.015 304.72 128.883 304.246 128.61C302.968 127.876 302.619 126.379 303.463 125.268C303.865 124.746 313.191 112.32 303.816 104.21C302.728 103.268 302.728 101.743 303.816 100.802C304.905 99.8616 306.667 99.861 307.755 100.802C317.848 109.529 312.397 122.369 308.103 127.941C307.566 128.638 306.683 129.015 305.786 129.015Z" fill="#3A3847"/>
<path d="M250.072 129.015C249.544 129.015 249.005 128.883 248.532 128.61C247.254 127.876 246.905 126.379 247.748 125.268C248.151 124.746 257.477 112.32 248.102 104.21C247.014 103.268 247.014 101.743 248.102 100.802C249.191 99.8616 250.953 99.861 252.041 100.802C262.134 109.529 256.682 122.369 252.389 127.941C251.851 128.638 250.969 129.015 250.072 129.015Z" fill="#3A3847"/>
<path d="M328.072 210.95C326.532 210.95 325.286 209.872 325.286 208.54V189.262C325.286 187.93 326.532 186.851 328.072 186.851C329.611 186.851 330.857 187.93 330.857 189.262V208.54C330.857 209.872 329.611 210.95 328.072 210.95Z" fill="#3A3847"/>
<path d="M261.214 215.77C259.675 215.77 258.429 214.692 258.429 213.36V189.262C258.429 187.93 259.675 186.851 261.214 186.851C262.754 186.851 264 187.93 264 189.262V213.36C264 214.692 262.754 215.77 261.214 215.77Z" fill="#3A3847"/>
<path d="M300.215 249.507C298.675 249.507 297.429 248.43 297.429 247.098V189.262C297.429 187.93 298.675 186.851 300.215 186.851C301.755 186.851 303 187.93 303 189.262V247.098C303 248.429 301.755 249.507 300.215 249.507Z" fill="#3A3847"/>
<path d="M222.214 201.311C220.675 201.311 219.429 200.233 219.429 198.901V189.262C219.429 187.93 220.675 186.851 222.214 186.851C223.754 186.851 225.001 187.93 225.001 189.262V198.901C225.001 200.233 223.754 201.311 222.214 201.311Z" fill="#3A3847"/>
</svg>
