<svg xmlns="http://www.w3.org/2000/svg" xmlns:xlink="http://www.w3.org/1999/xlink" width="500" zoomAndPan="magnify" viewBox="0 0 375 374.999991" height="500" preserveAspectRatio="xMidYMid meet" version="1.0"><defs><g/><clipPath id="9215108dd6"><path d="M 100.027344 95.558594 L 328.027344 95.558594 L 328.027344 290.558594 L 100.027344 290.558594 Z M 100.027344 95.558594 " clip-rule="nonzero"/></clipPath><clipPath id="7d95aba531"><path d="M 188 53 L 213 53 L 213 95.875 L 188 95.875 Z M 188 53 " clip-rule="nonzero"/></clipPath></defs><g clip-path="url(#9215108dd6)"><path fill="#000000" d="M 105.269531 101.480469 C 104.925781 141.304688 104.996094 184.5625 104.992188 225 C 104.992188 233.488281 104.378906 242.082031 105.269531 249.707031 C 107.003906 264.542969 110.949219 277.117188 118.019531 286.625 L 251.589844 286.625 C 259.027344 274.746094 264.441406 260.828125 264.058594 241.101562 C 290.15625 247.160156 319.8125 234.664062 321.976562 211.402344 C 322.96875 200.804688 321.976562 190.539062 321.976562 180.867188 C 321.976562 169.609375 322.007812 160.632812 318.375 153.664062 C 309.988281 137.558594 287.949219 129.046875 264.058594 133.679688 C 263.65625 122.976562 263.792969 111.738281 263.78125 100.648438 C 211.035156 100.648438 158.292969 100.648438 105.542969 100.648438 C 105.222656 100.695312 105.246094 101.085938 105.269531 101.480469 Z M 101.667969 95.648438 C 156.8125 96.019531 213.566406 94.914062 268.21875 96.207031 C 269.5 105.5625 268.414062 117.292969 268.773438 127.574219 C 292.9375 125.792969 311.019531 131.941406 321.699219 147.003906 C 327.367188 154.984375 327.800781 163.355469 327.800781 177.816406 C 327.800781 190.292969 328.285156 201.582031 327.800781 212.230469 C 327.507812 218.664062 325.023438 223.785156 321.980469 228.054688 C 311.722656 242.449219 293.550781 249.738281 269.324219 247.210938 C 269.222656 264.707031 263.558594 279.605469 255.472656 290.515625 C 208.359375 290.328125 160.507812 290.882812 113.863281 290.234375 C 97.105469 270.898438 100.28125 235.265625 100.28125 200.300781 C 100.28125 165.871094 100.054688 129.523438 100.558594 96.484375 C 101.125 96.402344 101.101562 95.730469 101.667969 95.648438 " fill-opacity="1" fill-rule="evenodd"/></g><path fill="#000000" d="M 284.292969 225.558594 C 288.546875 224.851562 294.160156 224.039062 297.867188 221.671875 C 305.96875 216.503906 305.632812 201.140625 305.632812 188.917969 C 305.632812 177.046875 305.714844 161.015625 298.148438 155.886719 C 292.066406 151.761719 277.015625 150.390625 269.054688 151.722656 C 268.40625 175.78125 268.957031 201.039062 268.773438 225.554688 C 274.1875 226.574219 279.5 226.355469 284.292969 225.554688 Z M 264.0625 230.558594 L 264.0625 147.28125 C 279.132812 144.105469 298.976562 146.128906 305.632812 156.441406 C 309.800781 162.894531 310.808594 176.242188 310.894531 188.359375 C 311.019531 206.003906 309.308594 222.644531 297.3125 228.054688 C 292.101562 230.40625 286.699219 230.707031 281.523438 231.109375 C 276.515625 231.496094 270.988281 231.472656 264.0625 230.558594 " fill-opacity="1" fill-rule="evenodd"/><path stroke-linecap="round" transform="matrix(0.0351568, 0, 0, -0.0354751, 113.659017, 129.539727)" fill="none" stroke-linejoin="round" d="M 1913.555388 2251.377925 C 1950.33254 2292.119532 1947.221482 2354.993741 1906.444398 2391.7713 C 1855.556376 2437.908417 1777.002157 2434.054481 1730.891831 2383.072416 C 1673.448364 2319.42742 1678.226061 2221.097001 1741.891644 2163.618301 C 1821.445845 2091.604758 1944.221533 2097.771055 2016.220307 2177.272245 C 2106.107666 2276.703789 2098.552239 2430.200546 1998.998378 2520.162418 C 1874.778271 2632.587231 1682.892648 2623.11756 1570.450117 2498.800603 C 1475.340625 2393.643212 1444.118934 2233.64982 1498.784671 2102.505891 C 1544.561669 1992.723777 1641.004472 1917.737197 1715.003212 1828.105662 C 1797.446254 1728.123556 1839.556648 1606.99986 1860.445181 1480.040203 " stroke="#231f1f" stroke-width="80" stroke-opacity="1" stroke-miterlimit="10"/><g clip-path="url(#7d95aba531)"><path stroke-linecap="round" transform="matrix(0.0351568, 0, 0, -0.0354751, 113.659017, 129.539727)" fill="none" stroke-linejoin="round" d="M 2338.548154 1763.469653 C 2301.548784 1804.321372 2304.770951 1867.08547 2345.548035 1903.973141 C 2396.436058 1950.000146 2475.101386 1946.14621 2521.100603 1895.164145 C 2578.655178 1831.519148 2573.766373 1733.298841 2510.10079 1675.820142 C 2430.546588 1603.806599 2307.7709 1609.862783 2235.772126 1689.474086 C 2145.884767 1788.905629 2153.551303 1942.402386 2252.994055 2032.364259 C 2377.214163 2144.789072 2569.099786 2135.209289 2681.542316 2010.892331 C 2776.762917 1905.73494 2807.984608 1745.851661 2753.207763 1614.707731 C 2707.430764 1504.925617 2610.987961 1429.939038 2536.989221 1340.19739 C 2454.54618 1240.215284 2412.435786 1119.2017 2391.547252 992.131932 " stroke="#231f1f" stroke-width="80" stroke-opacity="1" stroke-miterlimit="10"/></g><path stroke-linecap="round" transform="matrix(0.0351568, 0, 0, -0.0354751, 113.659017, 129.539727)" fill="none" stroke-linejoin="round" d="M 2112.885329 2912.603195 C 2075.997068 2953.344802 2079.108126 3016.219011 2119.88521 3053.106683 C 2170.773232 3099.133687 2249.43856 3095.169639 2295.437777 3044.297687 C 2352.992353 2980.65269 2348.103547 2882.432383 2284.549073 2824.843571 C 2204.883763 2752.94014 2082.108075 2758.996325 2010.22041 2838.497515 C 1920.221942 2938.039171 1927.888478 3091.535928 2027.331229 3181.387688 C 2151.551337 3293.922614 2343.548069 3284.34283 2455.87949 3160.025873 C 2551.100092 3054.758369 2582.321783 2894.87509 2527.544937 2763.841273 C 2481.767939 2653.949047 2385.325136 2578.962467 2311.437505 2489.330932 C 2228.883354 2389.348826 2186.661851 2268.22513 2165.995536 2141.155361 " stroke="#231f1f" stroke-width="80" stroke-opacity="1" stroke-miterlimit="10"/><g fill="#662c03" fill-opacity="1"><g transform="translate(117.886412, 237.932438)"><g><path d="M 1.6875 -6.1875 L 1.6875 -14.484375 C 1.6875 -16.660156 2.265625 -18.257812 3.421875 -19.28125 C 4.578125 -20.3125 6.125 -20.828125 8.0625 -20.828125 C 10 -20.828125 11.550781 -20.3125 12.71875 -19.28125 C 13.894531 -18.257812 14.484375 -16.660156 14.484375 -14.484375 L 14.484375 -6.1875 C 14.484375 -4 13.894531 -2.390625 12.71875 -1.359375 C 11.550781 -0.335938 10 0.171875 8.0625 0.171875 C 6.125 0.171875 4.578125 -0.335938 3.421875 -1.359375 C 2.265625 -2.390625 1.6875 -4 1.6875 -6.1875 Z M 4.703125 -6.1875 C 4.703125 -3.738281 5.820312 -2.515625 8.0625 -2.515625 C 9.144531 -2.515625 9.976562 -2.816406 10.5625 -3.421875 C 11.15625 -4.023438 11.453125 -4.945312 11.453125 -6.1875 L 11.453125 -14.484375 C 11.453125 -15.710938 11.15625 -16.628906 10.5625 -17.234375 C 9.976562 -17.847656 9.144531 -18.15625 8.0625 -18.15625 C 5.820312 -18.15625 4.703125 -16.929688 4.703125 -14.484375 Z M 4.703125 -6.1875 "/></g></g></g><g fill="#662c03" fill-opacity="1"><g transform="translate(134.013954, 237.932438)"><g><path d="M 1.875 -1 L 1.875 -19.859375 C 1.875 -20.179688 2.019531 -20.421875 2.3125 -20.578125 C 2.613281 -20.742188 2.972656 -20.828125 3.390625 -20.828125 C 3.804688 -20.828125 4.160156 -20.742188 4.453125 -20.578125 C 4.753906 -20.421875 4.90625 -20.179688 4.90625 -19.859375 L 4.90625 -12 L 12 -12 L 12 -19.859375 C 12 -20.179688 12.144531 -20.421875 12.4375 -20.578125 C 12.726562 -20.742188 13.082031 -20.828125 13.5 -20.828125 C 13.925781 -20.828125 14.285156 -20.742188 14.578125 -20.578125 C 14.867188 -20.421875 15.015625 -20.179688 15.015625 -19.859375 L 15.015625 -1 C 15.015625 -0.695312 14.867188 -0.453125 14.578125 -0.265625 C 14.285156 -0.0859375 13.929688 0 13.515625 0 C 13.109375 0 12.753906 -0.0859375 12.453125 -0.265625 C 12.148438 -0.453125 12 -0.695312 12 -1 L 12 -9.609375 L 4.90625 -9.609375 L 4.90625 -1 C 4.90625 -0.695312 4.753906 -0.453125 4.453125 -0.265625 C 4.160156 -0.0859375 3.804688 0 3.390625 0 C 2.992188 0 2.640625 -0.0859375 2.328125 -0.265625 C 2.023438 -0.453125 1.875 -0.695312 1.875 -1 Z M 1.875 -1 "/></g></g></g><g fill="#662c03" fill-opacity="1"><g transform="translate(150.910834, 237.932438)"><g/></g></g><g fill="#662c03" fill-opacity="1"><g transform="translate(156.609613, 237.932438)"><g><path d="M 1.875 -1 L 1.875 -19.328125 C 1.875 -19.835938 2.015625 -20.210938 2.296875 -20.453125 C 2.585938 -20.703125 2.953125 -20.828125 3.390625 -20.828125 C 3.941406 -20.828125 4.390625 -20.707031 4.734375 -20.46875 C 5.085938 -20.238281 5.4375 -19.789062 5.78125 -19.125 L 9.78125 -11.578125 L 13.828125 -19.125 C 14.160156 -19.789062 14.5 -20.238281 14.84375 -20.46875 C 15.1875 -20.707031 15.632812 -20.828125 16.1875 -20.828125 C 16.625 -20.828125 16.984375 -20.703125 17.265625 -20.453125 C 17.554688 -20.210938 17.703125 -19.835938 17.703125 -19.328125 L 17.703125 -1 C 17.703125 -0.695312 17.550781 -0.453125 17.25 -0.265625 C 16.957031 -0.0859375 16.601562 0 16.1875 0 C 15.789062 0 15.4375 -0.0859375 15.125 -0.265625 C 14.820312 -0.453125 14.671875 -0.695312 14.671875 -1 L 14.671875 -14.671875 L 10.859375 -7.609375 C 10.578125 -7.148438 10.207031 -6.921875 9.75 -6.921875 C 9.289062 -6.921875 8.945312 -7.148438 8.71875 -7.609375 L 4.90625 -14.84375 L 4.90625 -1 C 4.90625 -0.695312 4.753906 -0.453125 4.453125 -0.265625 C 4.160156 -0.0859375 3.804688 0 3.390625 0 C 2.992188 0 2.640625 -0.0859375 2.328125 -0.265625 C 2.023438 -0.453125 1.875 -0.695312 1.875 -1 Z M 1.875 -1 "/></g></g></g><g fill="#662c03" fill-opacity="1"><g transform="translate(176.184918, 237.932438)"><g><path d="M 0.375 -19.578125 C 0.375 -19.921875 0.582031 -20.210938 1 -20.453125 C 1.414062 -20.703125 1.84375 -20.828125 2.28125 -20.828125 C 2.695312 -20.828125 3.03125 -20.601562 3.28125 -20.15625 L 7.984375 -11.109375 L 12.65625 -20.15625 C 12.882812 -20.601562 13.21875 -20.828125 13.65625 -20.828125 C 14.09375 -20.828125 14.515625 -20.703125 14.921875 -20.453125 C 15.328125 -20.210938 15.53125 -19.921875 15.53125 -19.578125 C 15.53125 -19.410156 15.503906 -19.269531 15.453125 -19.15625 L 9.546875 -8.515625 C 9.503906 -8.398438 9.484375 -8.296875 9.484375 -8.203125 L 9.484375 -1 C 9.484375 -0.695312 9.332031 -0.453125 9.03125 -0.265625 C 8.726562 -0.0859375 8.378906 0 7.984375 0 C 7.566406 0 7.207031 -0.0859375 6.90625 -0.265625 C 6.613281 -0.453125 6.46875 -0.695312 6.46875 -1 L 6.46875 -8.203125 C 6.46875 -8.242188 6.441406 -8.347656 6.390625 -8.515625 L 0.484375 -19.15625 C 0.410156 -19.300781 0.375 -19.441406 0.375 -19.578125 Z M 0.375 -19.578125 "/></g></g></g><g fill="#662c03" fill-opacity="1"><g transform="translate(192.08451, 237.932438)"><g/></g></g><g fill="#662c03" fill-opacity="1"><g transform="translate(197.783289, 237.932438)"><g><path d="M 1.6875 -6.1875 L 1.6875 -14.484375 C 1.6875 -16.660156 2.269531 -18.257812 3.4375 -19.28125 C 4.601562 -20.3125 6.128906 -20.828125 8.015625 -20.828125 C 9.953125 -20.828125 11.515625 -20.347656 12.703125 -19.390625 C 13.890625 -18.429688 14.484375 -17.191406 14.484375 -15.671875 C 14.484375 -15.066406 14.367188 -14.65625 14.140625 -14.4375 C 13.910156 -14.21875 13.519531 -14.109375 12.96875 -14.109375 C 11.976562 -14.109375 11.472656 -14.441406 11.453125 -15.109375 C 11.335938 -17.140625 10.226562 -18.15625 8.125 -18.15625 C 5.84375 -18.15625 4.703125 -16.929688 4.703125 -14.484375 L 4.703125 -6.1875 C 4.703125 -3.738281 5.859375 -2.515625 8.171875 -2.515625 C 8.859375 -2.515625 9.429688 -2.613281 9.890625 -2.8125 C 10.347656 -3.007812 10.675781 -3.296875 10.875 -3.671875 C 11.070312 -4.054688 11.207031 -4.390625 11.28125 -4.671875 C 11.363281 -4.953125 11.421875 -5.304688 11.453125 -5.734375 C 11.515625 -6.390625 12.007812 -6.71875 12.9375 -6.71875 C 13.488281 -6.71875 13.882812 -6.609375 14.125 -6.390625 C 14.363281 -6.179688 14.484375 -5.769531 14.484375 -5.15625 C 14.484375 -3.582031 13.882812 -2.300781 12.6875 -1.3125 C 11.488281 -0.320312 9.921875 0.171875 7.984375 0.171875 C 6.097656 0.171875 4.578125 -0.335938 3.421875 -1.359375 C 2.265625 -2.390625 1.6875 -4 1.6875 -6.1875 Z M 1.6875 -6.1875 "/></g></g></g><g fill="#662c03" fill-opacity="1"><g transform="translate(213.198483, 237.932438)"><g><path d="M 1.796875 -6.1875 L 1.796875 -19.859375 C 1.796875 -20.179688 1.941406 -20.421875 2.234375 -20.578125 C 2.523438 -20.742188 2.878906 -20.828125 3.296875 -20.828125 C 3.722656 -20.828125 4.082031 -20.742188 4.375 -20.578125 C 4.664062 -20.421875 4.8125 -20.179688 4.8125 -19.859375 L 4.8125 -6.1875 C 4.8125 -4.945312 5.113281 -4.023438 5.71875 -3.421875 C 6.332031 -2.816406 7.191406 -2.515625 8.296875 -2.515625 C 10.628906 -2.515625 11.796875 -3.738281 11.796875 -6.1875 L 11.796875 -19.859375 C 11.796875 -20.179688 11.941406 -20.421875 12.234375 -20.578125 C 12.535156 -20.742188 12.894531 -20.828125 13.3125 -20.828125 C 13.726562 -20.828125 14.082031 -20.742188 14.375 -20.578125 C 14.664062 -20.421875 14.8125 -20.179688 14.8125 -19.859375 L 14.8125 -6.1875 C 14.8125 -4 14.21875 -2.390625 13.03125 -1.359375 C 11.84375 -0.335938 10.265625 0.171875 8.296875 0.171875 C 6.335938 0.171875 4.765625 -0.335938 3.578125 -1.359375 C 2.390625 -2.390625 1.796875 -4 1.796875 -6.1875 Z M 1.796875 -6.1875 "/></g></g></g><g fill="#662c03" fill-opacity="1"><g transform="translate(229.810423, 237.932438)"><g><path d="M 1.875 -1 L 1.875 -19.859375 C 1.875 -20.128906 1.984375 -20.359375 2.203125 -20.546875 C 2.421875 -20.734375 2.703125 -20.828125 3.046875 -20.828125 L 8.609375 -20.828125 C 10.503906 -20.828125 12.015625 -20.320312 13.140625 -19.3125 C 14.273438 -18.3125 14.84375 -16.726562 14.84375 -14.5625 L 14.84375 -14.328125 C 14.84375 -12.171875 14.257812 -10.582031 13.09375 -9.5625 C 11.925781 -8.539062 10.375 -8.03125 8.4375 -8.03125 L 4.90625 -8.03125 L 4.90625 -1 C 4.90625 -0.695312 4.753906 -0.453125 4.453125 -0.265625 C 4.160156 -0.0859375 3.804688 0 3.390625 0 C 2.992188 0 2.640625 -0.0859375 2.328125 -0.265625 C 2.023438 -0.453125 1.875 -0.695312 1.875 -1 Z M 4.90625 -10.4375 L 8.4375 -10.4375 C 9.519531 -10.4375 10.351562 -10.742188 10.9375 -11.359375 C 11.53125 -11.972656 11.828125 -12.898438 11.828125 -14.140625 L 11.828125 -14.484375 C 11.828125 -15.710938 11.53125 -16.628906 10.9375 -17.234375 C 10.351562 -17.847656 9.519531 -18.15625 8.4375 -18.15625 L 4.90625 -18.15625 Z M 4.90625 -10.4375 "/></g></g></g><g fill="#662c03" fill-opacity="1"><g transform="translate(245.339596, 237.932438)"><g><path d="M 1.3125 -1.53125 C 1.3125 -2.007812 1.476562 -2.414062 1.8125 -2.75 C 2.144531 -3.082031 2.546875 -3.25 3.015625 -3.25 C 3.472656 -3.25 3.867188 -3.082031 4.203125 -2.75 C 4.535156 -2.414062 4.703125 -2.007812 4.703125 -1.53125 C 4.703125 -1.082031 4.535156 -0.6875 4.203125 -0.34375 C 3.867188 0 3.472656 0.171875 3.015625 0.171875 C 2.546875 0.171875 2.144531 0 1.8125 -0.34375 C 1.476562 -0.6875 1.3125 -1.082031 1.3125 -1.53125 Z M 1.484375 -19.671875 C 1.484375 -20.109375 1.625 -20.441406 1.90625 -20.671875 C 2.195312 -20.910156 2.554688 -21.03125 2.984375 -21.03125 C 3.421875 -21.03125 3.78125 -20.90625 4.0625 -20.65625 C 4.351562 -20.414062 4.5 -20.085938 4.5 -19.671875 C 4.5 -18.296875 4.4375 -16.0625 4.3125 -12.96875 C 4.1875 -9.875 4.125 -7.640625 4.125 -6.265625 C 4.125 -5.984375 4 -5.757812 3.75 -5.59375 C 3.507812 -5.4375 3.257812 -5.359375 3 -5.359375 C 2.21875 -5.359375 1.828125 -5.660156 1.828125 -6.265625 C 1.828125 -7.640625 1.769531 -9.875 1.65625 -12.96875 C 1.539062 -16.0625 1.484375 -18.296875 1.484375 -19.671875 Z M 1.484375 -19.671875 "/></g></g></g><g fill="#662c03" fill-opacity="1"><g transform="translate(121.596258, 265.48865)"><g><path d="M 0.71875 -2.625 L 0.71875 -6.125 C 0.71875 -7.050781 0.960938 -7.726562 1.453125 -8.15625 C 1.941406 -8.59375 2.582031 -8.8125 3.375 -8.8125 C 4.1875 -8.8125 4.847656 -8.609375 5.359375 -8.203125 C 5.867188 -7.796875 6.125 -7.257812 6.125 -6.59375 C 6.125 -6.351562 6.070312 -6.1875 5.96875 -6.09375 C 5.875 -6.007812 5.710938 -5.96875 5.484375 -5.96875 C 5.066406 -5.96875 4.851562 -6.109375 4.84375 -6.390625 C 4.757812 -7.253906 4.28125 -7.6875 3.40625 -7.6875 C 2.457031 -7.6875 1.984375 -7.164062 1.984375 -6.125 L 1.984375 -2.625 C 1.984375 -1.582031 2.457031 -1.0625 3.40625 -1.0625 C 3.863281 -1.0625 4.21875 -1.1875 4.46875 -1.4375 C 4.71875 -1.695312 4.84375 -2.09375 4.84375 -2.625 L 4.84375 -3.609375 L 3.625 -3.609375 C 3.5 -3.609375 3.398438 -3.65625 3.328125 -3.75 C 3.253906 -3.851562 3.21875 -3.976562 3.21875 -4.125 C 3.21875 -4.25 3.253906 -4.363281 3.328125 -4.46875 C 3.398438 -4.570312 3.5 -4.625 3.625 -4.625 L 5.703125 -4.625 C 5.835938 -4.625 5.941406 -4.582031 6.015625 -4.5 C 6.085938 -4.414062 6.125 -4.316406 6.125 -4.203125 L 6.125 -2.625 C 6.125 -1.695312 5.875 -1.015625 5.375 -0.578125 C 4.882812 -0.140625 4.226562 0.078125 3.40625 0.078125 C 2.59375 0.078125 1.941406 -0.140625 1.453125 -0.578125 C 0.960938 -1.015625 0.71875 -1.695312 0.71875 -2.625 Z M 0.71875 -2.625 "/></g></g></g><g fill="#662c03" fill-opacity="1"><g transform="translate(128.300651, 265.48865)"><g><path d="M 0.71875 -2.625 L 0.71875 -6.125 C 0.71875 -7.050781 0.960938 -7.726562 1.453125 -8.15625 C 1.941406 -8.59375 2.59375 -8.8125 3.40625 -8.8125 C 4.226562 -8.8125 4.882812 -8.59375 5.375 -8.15625 C 5.875 -7.726562 6.125 -7.050781 6.125 -6.125 L 6.125 -2.625 C 6.125 -1.695312 5.875 -1.015625 5.375 -0.578125 C 4.882812 -0.140625 4.226562 0.078125 3.40625 0.078125 C 2.59375 0.078125 1.941406 -0.140625 1.453125 -0.578125 C 0.960938 -1.015625 0.71875 -1.695312 0.71875 -2.625 Z M 1.984375 -2.625 C 1.984375 -1.582031 2.457031 -1.0625 3.40625 -1.0625 C 3.863281 -1.0625 4.21875 -1.1875 4.46875 -1.4375 C 4.71875 -1.695312 4.84375 -2.09375 4.84375 -2.625 L 4.84375 -6.125 C 4.84375 -6.644531 4.71875 -7.035156 4.46875 -7.296875 C 4.21875 -7.554688 3.863281 -7.6875 3.40625 -7.6875 C 2.457031 -7.6875 1.984375 -7.164062 1.984375 -6.125 Z M 1.984375 -2.625 "/></g></g></g><g fill="#662c03" fill-opacity="1"><g transform="translate(135.125621, 265.48865)"><g><path d="M 0.71875 -2.625 L 0.71875 -6.125 C 0.71875 -7.050781 0.960938 -7.726562 1.453125 -8.15625 C 1.941406 -8.59375 2.59375 -8.8125 3.40625 -8.8125 C 4.226562 -8.8125 4.882812 -8.59375 5.375 -8.15625 C 5.875 -7.726562 6.125 -7.050781 6.125 -6.125 L 6.125 -2.625 C 6.125 -1.695312 5.875 -1.015625 5.375 -0.578125 C 4.882812 -0.140625 4.226562 0.078125 3.40625 0.078125 C 2.59375 0.078125 1.941406 -0.140625 1.453125 -0.578125 C 0.960938 -1.015625 0.71875 -1.695312 0.71875 -2.625 Z M 1.984375 -2.625 C 1.984375 -1.582031 2.457031 -1.0625 3.40625 -1.0625 C 3.863281 -1.0625 4.21875 -1.1875 4.46875 -1.4375 C 4.71875 -1.695312 4.84375 -2.09375 4.84375 -2.625 L 4.84375 -6.125 C 4.84375 -6.644531 4.71875 -7.035156 4.46875 -7.296875 C 4.21875 -7.554688 3.863281 -7.6875 3.40625 -7.6875 C 2.457031 -7.6875 1.984375 -7.164062 1.984375 -6.125 Z M 1.984375 -2.625 "/></g></g></g><g fill="#662c03" fill-opacity="1"><g transform="translate(141.950591, 265.48865)"><g><path d="M 0.796875 -0.40625 L 0.796875 -8.40625 C 0.796875 -8.519531 0.847656 -8.613281 0.953125 -8.6875 C 1.066406 -8.769531 1.203125 -8.8125 1.359375 -8.8125 L 3.5 -8.8125 C 4.320312 -8.8125 4.976562 -8.59375 5.46875 -8.15625 C 5.96875 -7.726562 6.21875 -7.050781 6.21875 -6.125 L 6.21875 -2.6875 C 6.21875 -1.757812 5.96875 -1.078125 5.46875 -0.640625 C 4.976562 -0.210938 4.320312 0 3.5 0 L 1.359375 0 C 1.203125 0 1.066406 -0.0351562 0.953125 -0.109375 C 0.847656 -0.191406 0.796875 -0.289062 0.796875 -0.40625 Z M 2.078125 -1.140625 L 3.5 -1.140625 C 4.457031 -1.140625 4.9375 -1.65625 4.9375 -2.6875 L 4.9375 -6.125 C 4.9375 -7.164062 4.457031 -7.6875 3.5 -7.6875 L 2.078125 -7.6875 Z M 2.078125 -1.140625 "/></g></g></g><g fill="#662c03" fill-opacity="1"><g transform="translate(148.859973, 265.48865)"><g/></g></g><g fill="#662c03" fill-opacity="1"><g transform="translate(151.271622, 265.48865)"><g><path d="M 0.171875 -8.234375 C 0.171875 -8.390625 0.207031 -8.523438 0.28125 -8.640625 C 0.351562 -8.753906 0.457031 -8.8125 0.59375 -8.8125 L 5.59375 -8.8125 C 5.726562 -8.8125 5.832031 -8.753906 5.90625 -8.640625 C 5.976562 -8.535156 6.015625 -8.40625 6.015625 -8.25 C 6.015625 -8.082031 5.976562 -7.9375 5.90625 -7.8125 C 5.832031 -7.695312 5.726562 -7.640625 5.59375 -7.640625 L 3.734375 -7.640625 L 3.734375 -0.421875 C 3.734375 -0.296875 3.671875 -0.191406 3.546875 -0.109375 C 3.421875 -0.0351562 3.269531 0 3.09375 0 C 2.914062 0 2.765625 -0.0351562 2.640625 -0.109375 C 2.515625 -0.191406 2.453125 -0.296875 2.453125 -0.421875 L 2.453125 -7.640625 L 0.59375 -7.640625 C 0.457031 -7.640625 0.351562 -7.695312 0.28125 -7.8125 C 0.207031 -7.9375 0.171875 -8.078125 0.171875 -8.234375 Z M 0.171875 -8.234375 "/></g></g></g><g fill="#662c03" fill-opacity="1"><g transform="translate(157.457512, 265.48865)"><g><path d="M 0.171875 -0.53125 C 0.171875 -0.582031 0.175781 -0.617188 0.1875 -0.640625 L 2.578125 -8.453125 C 2.671875 -8.742188 2.941406 -8.890625 3.390625 -8.890625 C 3.835938 -8.890625 4.109375 -8.742188 4.203125 -8.453125 L 6.59375 -0.640625 C 6.613281 -0.585938 6.625 -0.550781 6.625 -0.53125 C 6.625 -0.382812 6.535156 -0.257812 6.359375 -0.15625 C 6.191406 -0.0507812 6.007812 0 5.8125 0 C 5.582031 0 5.4375 -0.0859375 5.375 -0.265625 L 4.890625 -1.984375 L 1.90625 -1.984375 L 1.40625 -0.265625 C 1.351562 -0.0859375 1.207031 0 0.96875 0 C 0.769531 0 0.585938 -0.0507812 0.421875 -0.15625 C 0.253906 -0.257812 0.171875 -0.382812 0.171875 -0.53125 Z M 2.1875 -3 L 4.59375 -3 L 3.390625 -7.140625 Z M 2.1875 -3 "/></g></g></g><g fill="#662c03" fill-opacity="1"><g transform="translate(164.234255, 265.48865)"><g><path d="M 0.34375 -1.328125 C 0.34375 -1.484375 0.398438 -1.632812 0.515625 -1.78125 C 0.628906 -1.9375 0.757812 -2.015625 0.90625 -2.015625 C 0.988281 -2.015625 1.09375 -1.960938 1.21875 -1.859375 C 1.34375 -1.765625 1.460938 -1.65625 1.578125 -1.53125 C 1.703125 -1.414062 1.890625 -1.304688 2.140625 -1.203125 C 2.390625 -1.109375 2.664062 -1.0625 2.96875 -1.0625 C 3.425781 -1.0625 3.789062 -1.171875 4.0625 -1.390625 C 4.34375 -1.609375 4.484375 -1.925781 4.484375 -2.34375 C 4.484375 -2.726562 4.347656 -3.046875 4.078125 -3.296875 C 3.804688 -3.554688 3.476562 -3.765625 3.09375 -3.921875 C 2.71875 -4.078125 2.335938 -4.242188 1.953125 -4.421875 C 1.566406 -4.597656 1.238281 -4.859375 0.96875 -5.203125 C 0.695312 -5.554688 0.5625 -6 0.5625 -6.53125 C 0.5625 -6.957031 0.644531 -7.328125 0.8125 -7.640625 C 0.976562 -7.960938 1.203125 -8.207031 1.484375 -8.375 C 1.765625 -8.539062 2.054688 -8.660156 2.359375 -8.734375 C 2.671875 -8.816406 3.003906 -8.859375 3.359375 -8.859375 C 3.566406 -8.859375 3.789062 -8.84375 4.03125 -8.8125 C 4.269531 -8.78125 4.503906 -8.734375 4.734375 -8.671875 C 4.972656 -8.609375 5.164062 -8.515625 5.3125 -8.390625 C 5.46875 -8.273438 5.546875 -8.140625 5.546875 -7.984375 C 5.546875 -7.828125 5.5 -7.671875 5.40625 -7.515625 C 5.3125 -7.367188 5.179688 -7.296875 5.015625 -7.296875 C 4.929688 -7.296875 4.820312 -7.332031 4.6875 -7.40625 C 4.550781 -7.488281 4.367188 -7.566406 4.140625 -7.640625 C 3.910156 -7.710938 3.648438 -7.75 3.359375 -7.75 C 2.898438 -7.75 2.53125 -7.660156 2.25 -7.484375 C 1.976562 -7.304688 1.84375 -7.03125 1.84375 -6.65625 C 1.84375 -6.414062 1.914062 -6.207031 2.0625 -6.03125 C 2.207031 -5.863281 2.394531 -5.722656 2.625 -5.609375 C 2.851562 -5.492188 3.109375 -5.378906 3.390625 -5.265625 C 3.671875 -5.160156 3.945312 -5.035156 4.21875 -4.890625 C 4.5 -4.753906 4.753906 -4.585938 4.984375 -4.390625 C 5.210938 -4.203125 5.398438 -3.941406 5.546875 -3.609375 C 5.691406 -3.285156 5.765625 -2.90625 5.765625 -2.46875 C 5.765625 -1.632812 5.515625 -1 5.015625 -0.5625 C 4.515625 -0.125 3.847656 0.09375 3.015625 0.09375 C 2.273438 0.09375 1.644531 -0.0546875 1.125 -0.359375 C 0.601562 -0.671875 0.34375 -0.992188 0.34375 -1.328125 Z M 0.34375 -1.328125 "/></g></g></g><g fill="#662c03" fill-opacity="1"><g transform="translate(170.408083, 265.48865)"><g><path d="M 0.171875 -8.234375 C 0.171875 -8.390625 0.207031 -8.523438 0.28125 -8.640625 C 0.351562 -8.753906 0.457031 -8.8125 0.59375 -8.8125 L 5.59375 -8.8125 C 5.726562 -8.8125 5.832031 -8.753906 5.90625 -8.640625 C 5.976562 -8.535156 6.015625 -8.40625 6.015625 -8.25 C 6.015625 -8.082031 5.976562 -7.9375 5.90625 -7.8125 C 5.832031 -7.695312 5.726562 -7.640625 5.59375 -7.640625 L 3.734375 -7.640625 L 3.734375 -0.421875 C 3.734375 -0.296875 3.671875 -0.191406 3.546875 -0.109375 C 3.421875 -0.0351562 3.269531 0 3.09375 0 C 2.914062 0 2.765625 -0.0351562 2.640625 -0.109375 C 2.515625 -0.191406 2.453125 -0.296875 2.453125 -0.421875 L 2.453125 -7.640625 L 0.59375 -7.640625 C 0.457031 -7.640625 0.351562 -7.695312 0.28125 -7.8125 C 0.207031 -7.9375 0.171875 -8.078125 0.171875 -8.234375 Z M 0.171875 -8.234375 "/></g></g></g><g fill="#662c03" fill-opacity="1"><g transform="translate(176.593973, 265.48865)"><g><path d="M 0.796875 -0.421875 L 0.796875 -8.390625 C 0.796875 -8.523438 0.851562 -8.628906 0.96875 -8.703125 C 1.082031 -8.773438 1.210938 -8.8125 1.359375 -8.8125 L 5.65625 -8.8125 C 5.789062 -8.8125 5.894531 -8.753906 5.96875 -8.640625 C 6.039062 -8.535156 6.078125 -8.410156 6.078125 -8.265625 C 6.078125 -8.097656 6.035156 -7.957031 5.953125 -7.84375 C 5.878906 -7.738281 5.78125 -7.6875 5.65625 -7.6875 L 2.078125 -7.6875 L 2.078125 -4.921875 L 3.9375 -4.921875 C 4.0625 -4.921875 4.160156 -4.867188 4.234375 -4.765625 C 4.316406 -4.671875 4.359375 -4.550781 4.359375 -4.40625 C 4.359375 -4.269531 4.320312 -4.148438 4.25 -4.046875 C 4.175781 -3.953125 4.070312 -3.90625 3.9375 -3.90625 L 2.078125 -3.90625 L 2.078125 -1.140625 L 5.65625 -1.140625 C 5.78125 -1.140625 5.878906 -1.082031 5.953125 -0.96875 C 6.035156 -0.851562 6.078125 -0.71875 6.078125 -0.5625 C 6.078125 -0.414062 6.039062 -0.285156 5.96875 -0.171875 C 5.894531 -0.0546875 5.789062 0 5.65625 0 L 1.359375 0 C 1.210938 0 1.082031 -0.0351562 0.96875 -0.109375 C 0.851562 -0.191406 0.796875 -0.296875 0.796875 -0.421875 Z M 0.796875 -0.421875 "/></g></g></g><g fill="#662c03" fill-opacity="1"><g transform="translate(182.90044, 265.48865)"><g/></g></g><g fill="#662c03" fill-opacity="1"><g transform="translate(185.312089, 265.48865)"><g><path d="M 0.71875 -2.625 L 0.71875 -6.125 C 0.71875 -7.050781 0.960938 -7.726562 1.453125 -8.15625 C 1.941406 -8.59375 2.582031 -8.8125 3.375 -8.8125 C 4.1875 -8.8125 4.847656 -8.609375 5.359375 -8.203125 C 5.867188 -7.796875 6.125 -7.257812 6.125 -6.59375 C 6.125 -6.351562 6.070312 -6.1875 5.96875 -6.09375 C 5.875 -6.007812 5.710938 -5.96875 5.484375 -5.96875 C 5.066406 -5.96875 4.851562 -6.109375 4.84375 -6.390625 C 4.757812 -7.253906 4.28125 -7.6875 3.40625 -7.6875 C 2.457031 -7.6875 1.984375 -7.164062 1.984375 -6.125 L 1.984375 -2.625 C 1.984375 -1.582031 2.457031 -1.0625 3.40625 -1.0625 C 3.863281 -1.0625 4.21875 -1.1875 4.46875 -1.4375 C 4.71875 -1.695312 4.84375 -2.09375 4.84375 -2.625 L 4.84375 -3.609375 L 3.625 -3.609375 C 3.5 -3.609375 3.398438 -3.65625 3.328125 -3.75 C 3.253906 -3.851562 3.21875 -3.976562 3.21875 -4.125 C 3.21875 -4.25 3.253906 -4.363281 3.328125 -4.46875 C 3.398438 -4.570312 3.5 -4.625 3.625 -4.625 L 5.703125 -4.625 C 5.835938 -4.625 5.941406 -4.582031 6.015625 -4.5 C 6.085938 -4.414062 6.125 -4.316406 6.125 -4.203125 L 6.125 -2.625 C 6.125 -1.695312 5.875 -1.015625 5.375 -0.578125 C 4.882812 -0.140625 4.226562 0.078125 3.40625 0.078125 C 2.59375 0.078125 1.941406 -0.140625 1.453125 -0.578125 C 0.960938 -1.015625 0.71875 -1.695312 0.71875 -2.625 Z M 0.71875 -2.625 "/></g></g></g><g fill="#662c03" fill-opacity="1"><g transform="translate(192.016482, 265.48865)"><g><path d="M 0.71875 -2.625 L 0.71875 -6.125 C 0.71875 -7.050781 0.960938 -7.726562 1.453125 -8.15625 C 1.941406 -8.59375 2.59375 -8.8125 3.40625 -8.8125 C 4.226562 -8.8125 4.882812 -8.59375 5.375 -8.15625 C 5.875 -7.726562 6.125 -7.050781 6.125 -6.125 L 6.125 -2.625 C 6.125 -1.695312 5.875 -1.015625 5.375 -0.578125 C 4.882812 -0.140625 4.226562 0.078125 3.40625 0.078125 C 2.59375 0.078125 1.941406 -0.140625 1.453125 -0.578125 C 0.960938 -1.015625 0.71875 -1.695312 0.71875 -2.625 Z M 1.984375 -2.625 C 1.984375 -1.582031 2.457031 -1.0625 3.40625 -1.0625 C 3.863281 -1.0625 4.21875 -1.1875 4.46875 -1.4375 C 4.71875 -1.695312 4.84375 -2.09375 4.84375 -2.625 L 4.84375 -6.125 C 4.84375 -6.644531 4.71875 -7.035156 4.46875 -7.296875 C 4.21875 -7.554688 3.863281 -7.6875 3.40625 -7.6875 C 2.457031 -7.6875 1.984375 -7.164062 1.984375 -6.125 Z M 1.984375 -2.625 "/></g></g></g><g fill="#662c03" fill-opacity="1"><g transform="translate(198.841452, 265.48865)"><g><path d="M 0.71875 -2.625 L 0.71875 -6.125 C 0.71875 -7.050781 0.960938 -7.726562 1.453125 -8.15625 C 1.941406 -8.59375 2.59375 -8.8125 3.40625 -8.8125 C 4.226562 -8.8125 4.882812 -8.59375 5.375 -8.15625 C 5.875 -7.726562 6.125 -7.050781 6.125 -6.125 L 6.125 -2.625 C 6.125 -1.695312 5.875 -1.015625 5.375 -0.578125 C 4.882812 -0.140625 4.226562 0.078125 3.40625 0.078125 C 2.59375 0.078125 1.941406 -0.140625 1.453125 -0.578125 C 0.960938 -1.015625 0.71875 -1.695312 0.71875 -2.625 Z M 1.984375 -2.625 C 1.984375 -1.582031 2.457031 -1.0625 3.40625 -1.0625 C 3.863281 -1.0625 4.21875 -1.1875 4.46875 -1.4375 C 4.71875 -1.695312 4.84375 -2.09375 4.84375 -2.625 L 4.84375 -6.125 C 4.84375 -6.644531 4.71875 -7.035156 4.46875 -7.296875 C 4.21875 -7.554688 3.863281 -7.6875 3.40625 -7.6875 C 2.457031 -7.6875 1.984375 -7.164062 1.984375 -6.125 Z M 1.984375 -2.625 "/></g></g></g><g fill="#662c03" fill-opacity="1"><g transform="translate(205.666422, 265.48865)"><g><path d="M 0.796875 -0.40625 L 0.796875 -8.40625 C 0.796875 -8.519531 0.847656 -8.613281 0.953125 -8.6875 C 1.066406 -8.769531 1.203125 -8.8125 1.359375 -8.8125 L 3.5 -8.8125 C 4.320312 -8.8125 4.976562 -8.59375 5.46875 -8.15625 C 5.96875 -7.726562 6.21875 -7.050781 6.21875 -6.125 L 6.21875 -2.6875 C 6.21875 -1.757812 5.96875 -1.078125 5.46875 -0.640625 C 4.976562 -0.210938 4.320312 0 3.5 0 L 1.359375 0 C 1.203125 0 1.066406 -0.0351562 0.953125 -0.109375 C 0.847656 -0.191406 0.796875 -0.289062 0.796875 -0.40625 Z M 2.078125 -1.140625 L 3.5 -1.140625 C 4.457031 -1.140625 4.9375 -1.65625 4.9375 -2.6875 L 4.9375 -6.125 C 4.9375 -7.164062 4.457031 -7.6875 3.5 -7.6875 L 2.078125 -7.6875 Z M 2.078125 -1.140625 "/></g></g></g><g fill="#662c03" fill-opacity="1"><g transform="translate(212.575804, 265.48865)"><g/></g></g><g fill="#662c03" fill-opacity="1"><g transform="translate(214.987453, 265.48865)"><g><path d="M 0.15625 -8.28125 C 0.15625 -8.425781 0.238281 -8.550781 0.40625 -8.65625 C 0.570312 -8.757812 0.753906 -8.8125 0.953125 -8.8125 C 1.191406 -8.8125 1.34375 -8.722656 1.40625 -8.546875 L 3.390625 -1.671875 L 5.375 -8.546875 C 5.425781 -8.722656 5.566406 -8.8125 5.796875 -8.8125 C 5.992188 -8.8125 6.175781 -8.757812 6.34375 -8.65625 C 6.519531 -8.550781 6.609375 -8.425781 6.609375 -8.28125 C 6.609375 -8.257812 6.601562 -8.222656 6.59375 -8.171875 L 4.203125 -0.359375 C 4.160156 -0.222656 4.0625 -0.113281 3.90625 -0.03125 C 3.75 0.0390625 3.578125 0.078125 3.390625 0.078125 C 2.941406 0.078125 2.671875 -0.0664062 2.578125 -0.359375 L 0.171875 -8.171875 C 0.160156 -8.203125 0.15625 -8.238281 0.15625 -8.28125 Z M 0.15625 -8.28125 "/></g></g></g><g fill="#662c03" fill-opacity="1"><g transform="translate(221.752135, 265.48865)"><g><path d="M 0.171875 -0.53125 C 0.171875 -0.582031 0.175781 -0.617188 0.1875 -0.640625 L 2.578125 -8.453125 C 2.671875 -8.742188 2.941406 -8.890625 3.390625 -8.890625 C 3.835938 -8.890625 4.109375 -8.742188 4.203125 -8.453125 L 6.59375 -0.640625 C 6.613281 -0.585938 6.625 -0.550781 6.625 -0.53125 C 6.625 -0.382812 6.535156 -0.257812 6.359375 -0.15625 C 6.191406 -0.0507812 6.007812 0 5.8125 0 C 5.582031 0 5.4375 -0.0859375 5.375 -0.265625 L 4.890625 -1.984375 L 1.90625 -1.984375 L 1.40625 -0.265625 C 1.351562 -0.0859375 1.207031 0 0.96875 0 C 0.769531 0 0.585938 -0.0507812 0.421875 -0.15625 C 0.253906 -0.257812 0.171875 -0.382812 0.171875 -0.53125 Z M 2.1875 -3 L 4.59375 -3 L 3.390625 -7.140625 Z M 2.1875 -3 "/></g></g></g><g fill="#662c03" fill-opacity="1"><g transform="translate(228.528878, 265.48865)"><g><path d="M 0.796875 -0.421875 L 0.796875 -8.40625 C 0.796875 -8.539062 0.859375 -8.640625 0.984375 -8.703125 C 1.109375 -8.773438 1.257812 -8.8125 1.4375 -8.8125 C 1.613281 -8.8125 1.765625 -8.773438 1.890625 -8.703125 C 2.015625 -8.640625 2.078125 -8.539062 2.078125 -8.40625 L 2.078125 -1.140625 L 5.21875 -1.140625 C 5.332031 -1.140625 5.421875 -1.082031 5.484375 -0.96875 C 5.554688 -0.851562 5.59375 -0.71875 5.59375 -0.5625 C 5.59375 -0.414062 5.554688 -0.285156 5.484375 -0.171875 C 5.421875 -0.0546875 5.332031 0 5.21875 0 L 1.359375 0 C 1.210938 0 1.082031 -0.0351562 0.96875 -0.109375 C 0.851562 -0.191406 0.796875 -0.296875 0.796875 -0.421875 Z M 0.796875 -0.421875 "/></g></g></g><g fill="#662c03" fill-opacity="1"><g transform="translate(234.280667, 265.48865)"><g><path d="M 0.765625 -2.625 L 0.765625 -8.40625 C 0.765625 -8.539062 0.828125 -8.640625 0.953125 -8.703125 C 1.078125 -8.773438 1.226562 -8.8125 1.40625 -8.8125 C 1.582031 -8.8125 1.726562 -8.773438 1.84375 -8.703125 C 1.96875 -8.640625 2.03125 -8.539062 2.03125 -8.40625 L 2.03125 -2.625 C 2.03125 -2.09375 2.160156 -1.695312 2.421875 -1.4375 C 2.679688 -1.1875 3.046875 -1.0625 3.515625 -1.0625 C 4.503906 -1.0625 5 -1.582031 5 -2.625 L 5 -8.40625 C 5 -8.539062 5.0625 -8.640625 5.1875 -8.703125 C 5.3125 -8.773438 5.460938 -8.8125 5.640625 -8.8125 C 5.816406 -8.8125 5.960938 -8.773438 6.078125 -8.703125 C 6.203125 -8.640625 6.265625 -8.539062 6.265625 -8.40625 L 6.265625 -2.625 C 6.265625 -1.695312 6.015625 -1.015625 5.515625 -0.578125 C 5.015625 -0.140625 4.347656 0.078125 3.515625 0.078125 C 2.679688 0.078125 2.015625 -0.140625 1.515625 -0.578125 C 1.015625 -1.015625 0.765625 -1.695312 0.765625 -2.625 Z M 0.765625 -2.625 "/></g></g></g><g fill="#662c03" fill-opacity="1"><g transform="translate(241.310635, 265.48865)"><g><path d="M 0.796875 -0.421875 L 0.796875 -8.390625 C 0.796875 -8.523438 0.851562 -8.628906 0.96875 -8.703125 C 1.082031 -8.773438 1.210938 -8.8125 1.359375 -8.8125 L 5.65625 -8.8125 C 5.789062 -8.8125 5.894531 -8.753906 5.96875 -8.640625 C 6.039062 -8.535156 6.078125 -8.410156 6.078125 -8.265625 C 6.078125 -8.097656 6.035156 -7.957031 5.953125 -7.84375 C 5.878906 -7.738281 5.78125 -7.6875 5.65625 -7.6875 L 2.078125 -7.6875 L 2.078125 -4.921875 L 3.9375 -4.921875 C 4.0625 -4.921875 4.160156 -4.867188 4.234375 -4.765625 C 4.316406 -4.671875 4.359375 -4.550781 4.359375 -4.40625 C 4.359375 -4.269531 4.320312 -4.148438 4.25 -4.046875 C 4.175781 -3.953125 4.070312 -3.90625 3.9375 -3.90625 L 2.078125 -3.90625 L 2.078125 -1.140625 L 5.65625 -1.140625 C 5.78125 -1.140625 5.878906 -1.082031 5.953125 -0.96875 C 6.035156 -0.851562 6.078125 -0.71875 6.078125 -0.5625 C 6.078125 -0.414062 6.039062 -0.285156 5.96875 -0.171875 C 5.894531 -0.0546875 5.789062 0 5.65625 0 L 1.359375 0 C 1.210938 0 1.082031 -0.0351562 0.96875 -0.109375 C 0.851562 -0.191406 0.796875 -0.296875 0.796875 -0.421875 Z M 0.796875 -0.421875 "/></g></g></g><g fill="#662c03" fill-opacity="1"><g transform="translate(114.017655, 187.42402)"><g><path d="M 4.03125 -17.296875 L 4.03125 -38.921875 C 4.03125 -45.078125 5.671875 -49.578125 8.953125 -52.421875 C 12.234375 -55.265625 16.640625 -56.6875 22.171875 -56.6875 C 27.703125 -56.6875 32.125 -55.265625 35.4375 -52.421875 C 38.75 -49.578125 40.40625 -45.078125 40.40625 -38.921875 L 40.40625 -17.296875 C 40.40625 -11.140625 38.75 -6.640625 35.4375 -3.796875 C 32.125 -0.953125 27.703125 0.46875 22.171875 0.46875 C 16.640625 0.46875 12.234375 -0.953125 8.953125 -3.796875 C 5.671875 -6.640625 4.03125 -11.140625 4.03125 -17.296875 Z M 14.109375 -17.296875 C 14.109375 -11.347656 16.796875 -8.375 22.171875 -8.375 C 27.609375 -8.375 30.328125 -11.347656 30.328125 -17.296875 L 30.328125 -38.921875 C 30.328125 -44.867188 27.609375 -47.84375 22.171875 -47.84375 C 16.796875 -47.84375 14.109375 -44.867188 14.109375 -38.921875 Z M 14.109375 -17.296875 "/></g></g></g><g fill="#662c03" fill-opacity="1"><g transform="translate(158.365511, 187.42402)"><g><path d="M 4.65625 -3.171875 L 4.65625 -51.640625 C 4.65625 -53.347656 5.128906 -54.613281 6.078125 -55.4375 C 7.035156 -56.269531 8.238281 -56.6875 9.6875 -56.6875 C 11.601562 -56.6875 13.078125 -56.347656 14.109375 -55.671875 C 15.148438 -55.003906 16.289062 -53.5625 17.53125 -51.34375 L 27.0625 -33.96875 L 36.609375 -51.34375 C 37.847656 -53.5625 38.992188 -55.003906 40.046875 -55.671875 C 41.109375 -56.347656 42.597656 -56.6875 44.515625 -56.6875 C 45.960938 -56.6875 47.160156 -56.269531 48.109375 -55.4375 C 49.066406 -54.613281 49.546875 -53.347656 49.546875 -51.640625 L 49.546875 -3.171875 C 49.546875 -2.191406 49.039062 -1.414062 48.03125 -0.84375 C 47.03125 -0.28125 45.859375 0 44.515625 0 C 43.117188 0 41.925781 -0.28125 40.9375 -0.84375 C 39.957031 -1.414062 39.46875 -2.191406 39.46875 -3.171875 L 39.46875 -36.53125 L 30.390625 -20.390625 C 29.671875 -19.046875 28.535156 -18.375 26.984375 -18.375 C 25.484375 -18.375 24.375 -19.046875 23.65625 -20.390625 L 14.734375 -37.140625 L 14.734375 -3.171875 C 14.734375 -2.191406 14.226562 -1.414062 13.21875 -0.84375 C 12.207031 -0.28125 11.03125 0 9.6875 0 C 8.289062 0 7.101562 -0.28125 6.125 -0.84375 C 5.144531 -1.414062 4.65625 -2.191406 4.65625 -3.171875 Z M 4.65625 -3.171875 "/></g></g></g><g fill="#662c03" fill-opacity="1"><g transform="translate(212.559828, 187.42402)"><g><path d="M 4.109375 -17.296875 L 4.109375 -38.921875 C 4.109375 -45.023438 5.757812 -49.507812 9.0625 -52.375 C 12.375 -55.25 16.691406 -56.6875 22.015625 -56.6875 C 27.453125 -56.6875 31.890625 -55.34375 35.328125 -52.65625 C 38.765625 -49.96875 40.484375 -46.398438 40.484375 -41.953125 C 40.484375 -40.035156 40.09375 -38.726562 39.3125 -38.03125 C 38.539062 -37.332031 37.25 -36.984375 35.4375 -36.984375 C 32.125 -36.984375 30.441406 -38.046875 30.390625 -40.171875 C 30.347656 -40.835938 30.285156 -41.414062 30.203125 -41.90625 C 30.128906 -42.40625 29.921875 -43.054688 29.578125 -43.859375 C 29.242188 -44.660156 28.816406 -45.332031 28.296875 -45.875 C 27.785156 -46.414062 27.007812 -46.878906 25.96875 -47.265625 C 24.9375 -47.648438 23.722656 -47.84375 22.328125 -47.84375 C 16.898438 -47.84375 14.1875 -44.867188 14.1875 -38.921875 L 14.1875 -17.296875 C 14.1875 -11.347656 16.953125 -8.375 22.484375 -8.375 C 24.140625 -8.375 25.519531 -8.628906 26.625 -9.140625 C 27.738281 -9.660156 28.539062 -10.398438 29.03125 -11.359375 C 29.53125 -12.316406 29.867188 -13.171875 30.046875 -13.921875 C 30.234375 -14.671875 30.347656 -15.585938 30.390625 -16.671875 C 30.546875 -18.796875 32.203125 -19.859375 35.359375 -19.859375 C 37.171875 -19.859375 38.476562 -19.507812 39.28125 -18.8125 C 40.082031 -18.113281 40.484375 -16.804688 40.484375 -14.890625 C 40.484375 -10.234375 38.765625 -6.507812 35.328125 -3.71875 C 31.890625 -0.925781 27.429688 0.46875 21.953125 0.46875 C 16.617188 0.46875 12.3125 -0.960938 9.03125 -3.828125 C 5.75 -6.703125 4.109375 -11.191406 4.109375 -17.296875 Z M 4.109375 -17.296875 "/></g></g></g></svg>